<svg width="67" height="81" viewBox="0 0 67 81" fill="none" xmlns="http://www.w3.org/2000/svg">
<path d="M2.376 78V62.928H7.224C8.88 62.928 10.144 63.348 11.016 64.188C11.896 65.02 12.336 66.152 12.336 67.584C12.336 69 11.896 70.124 11.016 70.956C10.144 71.78 8.88 72.192 7.224 72.192H4.272V78H2.376ZM4.272 70.56H7.224C8.272 70.56 9.064 70.292 9.6 69.756C10.144 69.22 10.416 68.496 10.416 67.584C10.416 66.656 10.144 65.916 9.6 65.364C9.064 64.812 8.272 64.536 7.224 64.536H4.272V70.56ZM19.6971 78.288C18.7051 78.288 17.8171 78.036 17.0331 77.532C16.2571 77.02 15.6411 76.312 15.1851 75.408C14.7371 74.504 14.5131 73.464 14.5131 72.288C14.5131 71.032 14.7371 69.952 15.1851 69.048C15.6331 68.144 16.2451 67.452 17.0211 66.972C17.8051 66.484 18.6971 66.24 19.6971 66.24C20.5691 66.24 21.3131 66.416 21.9291 66.768C22.5451 67.12 23.0411 67.596 23.4171 68.196C23.7931 68.796 24.0531 69.476 24.1971 70.236C24.3491 70.988 24.3931 71.768 24.3291 72.576H16.0251V71.424H23.0931L22.5411 71.784C22.5651 71.312 22.5371 70.84 22.4571 70.368C22.3851 69.896 22.2451 69.464 22.0371 69.072C21.8291 68.672 21.5371 68.352 21.1611 68.112C20.7851 67.872 20.3051 67.752 19.7211 67.752C18.9851 67.752 18.3691 67.94 17.8731 68.316C17.3771 68.692 17.0051 69.188 16.7571 69.804C16.5091 70.412 16.3851 71.072 16.3851 71.784V72.552C16.3851 73.352 16.5051 74.068 16.7451 74.7C16.9931 75.332 17.3611 75.832 17.8491 76.2C18.3371 76.568 18.9531 76.752 19.6971 76.752C20.4411 76.752 21.0531 76.572 21.5331 76.212C22.0131 75.852 22.3051 75.32 22.4091 74.616H24.3531C24.2331 75.376 23.9611 76.032 23.5371 76.584C23.1131 77.128 22.5731 77.548 21.9171 77.844C21.2611 78.14 20.5211 78.288 19.6971 78.288ZM36.2012 78V71.256C36.2012 70.16 35.9372 69.328 35.4092 68.76C34.8892 68.184 34.1772 67.896 33.2732 67.896C32.5852 67.896 31.9892 68.084 31.4852 68.46C30.9812 68.836 30.5932 69.376 30.3212 70.08C30.0492 70.776 29.9132 71.608 29.9132 72.576H29.1932C29.1932 71.24 29.3692 70.1 29.7212 69.156C30.0732 68.212 30.5852 67.492 31.2572 66.996C31.9372 66.492 32.7612 66.24 33.7292 66.24C34.6332 66.24 35.4052 66.444 36.0452 66.852C36.6932 67.252 37.1892 67.828 37.5332 68.58C37.8772 69.332 38.0492 70.224 38.0492 71.256V78H36.2012ZM28.0412 78V66.528H29.6492L29.9132 69.168V78H28.0412ZM49.2769 63.816C48.8929 63.816 48.5889 63.708 48.3649 63.492C48.1409 63.268 48.0289 62.976 48.0289 62.616C48.0289 62.264 48.1409 61.984 48.3649 61.776C48.5889 61.568 48.8929 61.464 49.2769 61.464C49.6609 61.464 49.9649 61.568 50.1889 61.776C50.4129 61.984 50.5249 62.264 50.5249 62.616C50.5249 62.976 50.4129 63.268 50.1889 63.492C49.9649 63.708 49.6609 63.816 49.2769 63.816ZM48.3409 78V66.504H50.2129V78H48.3409ZM58.8973 78.288C58.2733 78.288 57.7133 78.168 57.2173 77.928C56.7213 77.688 56.3293 77.328 56.0413 76.848C55.7533 76.368 55.6093 75.768 55.6093 75.048V63.336H57.4573V75C57.4573 76.184 58.0093 76.776 59.1133 76.776C59.4413 76.776 59.7573 76.74 60.0613 76.668C60.3733 76.596 60.7213 76.488 61.1053 76.344L61.3693 77.688C60.9613 77.864 60.5533 78.008 60.1453 78.12C59.7453 78.232 59.3293 78.288 58.8973 78.288ZM53.7613 67.824V66.528H61.0813V67.824H53.7613Z" fill="#1E62A2"/>
<path d="M53.0359 40.0116C53.6954 40.0116 54.2302 39.4759 54.2302 38.8151C54.2302 38.1535 53.6954 37.6172 53.0359 37.6172H47.9716C47.3121 37.6172 46.7773 38.1535 46.7773 38.8151C46.7773 39.4759 47.3121 40.0116 47.9716 40.0116H53.0359Z" fill="#F2F2F2"/>
<path d="M53.7954 42.7874V48.0345H52.4625V41.2969H48.477C48.4624 41.371 48.4545 41.4485 48.4545 41.5266V42.8351C46.0752 43.09 44.6406 44.2118 44.6406 45.8897V48.7543C44.6406 49.4145 45.1747 49.9508 45.8342 49.9508H48.1416H48.6229H52.3298H55.0656H55.1191C55.7786 49.9508 56.3134 49.4145 56.3134 48.7543V45.1527C56.3127 44.3992 55.9357 43.2457 53.7954 42.7874Z" fill="#F2F2F2"/>
<path d="M17.3813 37.6881H24.4954L23.6828 35.293H16.5508L17.3813 37.6881Z" fill="#F2F2F2"/>
<path d="M25.8187 30.5977H14.9375L15.768 32.9927H26.6314L25.8187 30.5977Z" fill="#F2F2F2"/>
<path d="M62.6888 0.635668C62.6855 0.413177 62.5686 0.208565 62.3785 0.0940085C62.1904 -0.0225344 61.9553 -0.0304806 61.7586 0.0688457C61.3915 0.252931 53.7836 4.20281 40.0702 19.9388C39.5652 20.5009 39.0515 21.079 38.526 21.677C31.9189 29.1973 26.9286 35.7032 26.8797 35.7687C26.4783 36.2932 26.5767 37.0447 27.0996 37.4473C27.1735 37.5043 27.2527 37.5513 27.3346 37.5877C27.8284 37.8129 28.4285 37.6765 28.7731 37.2268C28.8048 37.1851 30.8435 34.5271 34.0262 30.664L41.3496 30.9249C42.0078 30.9487 42.5617 30.4316 42.5855 29.7714C42.6086 29.1105 42.093 28.5556 41.4341 28.5325L35.9606 28.3365C36.3184 27.9107 36.6861 27.475 37.0624 27.0313L45.452 27.2757C45.7531 27.0035 46.0568 26.6929 46.3604 26.3367C50.8233 21.1121 54.6794 16.2114 57.2357 12.9621C62.7027 6.01121 62.6921 0.851537 62.6888 0.635668Z" fill="#F2F2F2"/>
<path d="M41.2743 43.2477H35.4918C35.2185 42.4889 33.9641 39.0065 32.7157 35.5347C31.9644 36.4743 31.3736 37.2259 30.9709 37.7404C31.7769 39.9825 32.5295 42.073 32.9534 43.2477H22.3231C21.6636 43.2477 21.1295 43.7848 21.1295 44.4456C21.1295 44.4886 21.1315 44.5317 21.1368 44.5734C21.1321 44.6151 21.1295 44.6588 21.1295 44.7025C21.1295 44.9873 21.0655 47.4837 18.8558 47.4837C18.1626 47.4837 17.8438 46.8884 17.109 44.8422C16.9783 44.4588 11.6294 28.7355 11.2175 27.486L11.2056 27.4502C11.1039 27.141 10.9488 26.6735 10.6979 26.1749C15.6011 26.1643 24.3433 26.1464 25.0635 26.1451C25.9125 26.1464 26.8757 26.1418 27.6851 28.56C27.7492 28.7514 28.0165 29.5056 28.4021 30.5817C28.9335 29.9215 29.5237 29.1951 30.1635 28.4144C30.0532 28.1018 29.9766 27.8853 29.9476 27.7979C28.7487 24.2175 26.7173 23.75 25.0767 23.75C25.0708 23.75 25.0642 23.75 25.0582 23.75C24.0528 23.7526 7.41021 23.7877 7.41021 23.7877V23.8043C7.29204 23.7944 7.17122 23.7877 7.04513 23.7877C6.06476 23.7877 5.19661 24.1612 4.53445 24.8711C2.81071 26.7165 2.9916 30.3287 3.01801 30.7346C3.05894 31.3643 3.57982 31.8537 4.20898 31.8537L10.1711 31.851C11.8618 36.8339 14.6894 45.1455 14.8518 45.6243C14.8525 45.6263 14.8538 45.6289 14.8544 45.6316C14.8558 45.6355 14.8571 45.6388 14.8577 45.6428C15.5701 47.6287 16.3768 49.8787 18.8538 49.8787C18.9449 49.8787 19.0327 49.8741 19.1206 49.8701C19.1641 49.8754 19.2084 49.8787 19.2526 49.8787H37.8051C39.7057 49.8787 41.1727 48.9166 41.9325 47.1705C42.4515 45.9805 42.466 44.829 42.466 44.7019C42.466 44.6582 42.4633 44.6145 42.4594 44.5727C42.4633 44.531 42.466 44.488 42.466 44.4449C42.4673 43.7848 41.9325 43.2477 41.2743 43.2477ZM5.40985 29.4593C5.47653 28.4124 5.71024 27.1158 6.27733 26.5093C6.49057 26.2802 6.72098 26.1828 7.04645 26.1828C8.0836 26.1828 8.49753 26.8629 8.93986 28.2031L8.95174 28.2395C9.00785 28.4104 9.1531 28.8408 9.36171 29.4586L5.40985 29.4593ZM39.7467 46.2123C39.3638 47.0917 38.7656 47.4843 37.8071 47.4843H22.8453C23.1576 46.8765 23.3444 46.2295 23.4382 45.6435H39.9401C39.8932 45.8256 39.8312 46.0203 39.7467 46.2123Z" fill="#F2F2F2"/>
</svg>
