<svg width="500" height="500" viewBox="0 0 500 500" fill="none" xmlns="http://www.w3.org/2000/svg">
<path d="M500 382.398H0V382.648H500V382.398Z" fill="#EBEBEB"/>
<path d="M449.901 398.488H416.781V398.738H449.901V398.488Z" fill="#EBEBEB"/>
<path d="M331.221 401.211H322.531V401.461H331.221V401.211Z" fill="#EBEBEB"/>
<path d="M415.78 389.211H396.59V389.461H415.78V389.211Z" fill="#EBEBEB"/>
<path d="M95.6509 390.891H52.4609V391.141H95.6509V390.891Z" fill="#EBEBEB"/>
<path d="M110.889 390.891H104.559V391.141H110.889V390.891Z" fill="#EBEBEB"/>
<path d="M225.149 395.109H131.469V395.359H225.149V395.109Z" fill="#EBEBEB"/>
<path d="M237.001 337.8H43.9109C42.3983 337.797 40.9485 337.195 39.8798 336.124C38.8112 335.053 38.2109 333.603 38.2109 332.09V60.66C38.2241 59.156 38.8301 57.718 39.8974 56.6582C40.9646 55.5985 42.4069 55.0026 43.9109 55H237.001C238.515 55 239.968 55.6016 241.039 56.6724C242.109 57.7433 242.711 59.1956 242.711 60.71V332.09C242.711 333.604 242.109 335.057 241.039 336.128C239.968 337.198 238.515 337.8 237.001 337.8ZM43.9109 55.2C42.4646 55.2026 41.0784 55.7791 40.0566 56.8027C39.0348 57.8264 38.4609 59.2136 38.4609 60.66V332.09C38.4609 333.536 39.0348 334.924 40.0566 335.947C41.0784 336.971 42.4646 337.547 43.9109 337.55H237.001C238.448 337.547 239.835 336.971 240.859 335.948C241.882 334.924 242.458 333.537 242.461 332.09V60.66C242.458 59.2127 241.882 57.8255 240.859 56.8021C239.835 55.7787 238.448 55.2026 237.001 55.2H43.9109Z" fill="#EBEBEB"/>
<path d="M453.31 337.8H260.21C258.696 337.797 257.246 337.195 256.175 336.125C255.105 335.054 254.503 333.604 254.5 332.09V60.66C254.516 59.1551 255.124 57.7171 256.193 56.6576C257.262 55.5981 258.705 55.0025 260.21 55H453.31C454.812 55.0052 456.252 55.6022 457.317 56.6617C458.382 57.7212 458.987 59.1578 459 60.66V332.09C459 333.601 458.401 335.05 457.335 336.121C456.268 337.191 454.821 337.795 453.31 337.8ZM260.21 55.2C258.763 55.2026 257.375 55.7787 256.352 56.8021C255.329 57.8255 254.753 59.2127 254.75 60.66V332.09C254.753 333.537 255.329 334.924 256.352 335.948C257.375 336.971 258.763 337.547 260.21 337.55H453.31C454.757 337.547 456.145 336.971 457.168 335.948C458.191 334.924 458.767 333.537 458.77 332.09V60.66C458.767 59.2127 458.191 57.8255 457.168 56.8021C456.145 55.7787 454.757 55.2026 453.31 55.2H260.21Z" fill="#EBEBEB"/>
<path d="M325.701 95.4414H78.3711V276.111H325.701V95.4414Z" fill="#F0F0F0"/>
<path d="M325.699 276.102H327.699V95.4316H325.699V276.102Z" fill="#E0E0E0"/>
<path d="M315.699 266.111V105.441L88.3692 105.441V266.111H315.699Z" fill="#FAFAFA"/>
<path d="M70.2189 114.26L69.1289 138.94L234.089 133.53L335.259 132.17L336.369 109.27L195.559 110.85L70.2189 114.26Z" fill="#E6E6E6"/>
<path d="M69.9109 170.872L69.4609 195.572L234.441 194.392L335.541 190.432L336.061 167.512L195.341 172.702L69.9109 170.872Z" fill="#E6E6E6"/>
<path d="M332.399 171.062L334.639 146.462L169.599 144.662L68.4691 141.602L66.2891 164.442L207.029 169.002L332.399 171.062Z" fill="#E0E0E0"/>
<path d="M331.231 262.778L333.061 238.148L168.011 238.578L66.8508 236.898L65.0508 259.748L205.841 262.408L331.231 262.778Z" fill="#E0E0E0"/>
<path d="M333.251 214.23L334.441 189.56L169.501 185.77L68.3311 186.68L67.1211 209.57L207.931 208.62L333.251 214.23Z" fill="#E0E0E0"/>
<path d="M70.8784 202.102L67.8984 226.632L232.808 233.402L333.798 239.502L336.668 216.752L196.128 207.942L70.8784 202.102Z" fill="#E6E6E6"/>
<path d="M412.23 349.001L411.78 348.341C410.527 346.465 409.748 344.314 409.51 342.071L408.15 329.001C408.216 328.997 408.28 328.98 408.339 328.951C408.398 328.923 408.451 328.882 408.495 328.833C408.538 328.784 408.572 328.727 408.593 328.665C408.615 328.602 408.624 328.537 408.62 328.471C408.616 328.405 408.599 328.341 408.57 328.282C408.542 328.223 408.502 328.17 408.452 328.126C408.403 328.083 408.346 328.049 408.284 328.027C408.221 328.006 408.156 327.997 408.09 328.001H402.74C402.607 327.993 402.477 328.038 402.378 328.126C402.278 328.214 402.218 328.338 402.21 328.471C402.202 328.604 402.247 328.734 402.335 328.833C402.423 328.933 402.547 328.993 402.68 329.001L401.32 342.061C401.091 344.306 400.311 346.46 399.05 348.331L398.61 348.991C397.883 350.066 397.497 351.334 397.5 352.631V380.301C397.5 380.858 397.721 381.392 398.115 381.786C398.509 382.18 399.043 382.401 399.6 382.401H411.23C411.787 382.401 412.321 382.18 412.715 381.786C413.109 381.392 413.33 380.858 413.33 380.301V352.621C413.328 351.332 412.945 350.073 412.23 349.001Z" fill="#F0F0F0"/>
<path d="M409.33 356.801H397.5V374.371H409.33V356.801Z" fill="#FAFAFA"/>
<path d="M341.73 381.289L341.07 380.849C339.198 379.589 337.045 378.809 334.8 378.579L321.74 377.219C321.726 377.335 321.669 377.442 321.58 377.52C321.492 377.597 321.378 377.64 321.26 377.639C321.13 377.639 321.006 377.587 320.914 377.495C320.822 377.403 320.77 377.279 320.77 377.149V371.809C320.766 371.743 320.776 371.677 320.797 371.615C320.818 371.553 320.852 371.495 320.896 371.446C320.939 371.397 320.992 371.357 321.051 371.328C321.111 371.299 321.175 371.283 321.24 371.279C321.306 371.275 321.372 371.284 321.434 371.305C321.496 371.327 321.554 371.36 321.603 371.404C321.652 371.447 321.692 371.5 321.721 371.56C321.75 371.619 321.766 371.683 321.77 371.749L334.83 370.389C337.073 370.148 339.224 369.369 341.1 368.119L341.76 367.669C342.837 366.947 344.104 366.56 345.4 366.559H373C373.278 366.559 373.552 366.613 373.808 366.719C374.064 366.825 374.297 366.981 374.492 367.177C374.688 367.373 374.844 367.605 374.95 367.861C375.056 368.117 375.11 368.392 375.11 368.669V380.299C375.11 380.575 375.056 380.849 374.95 381.105C374.843 381.36 374.688 381.592 374.492 381.787C374.296 381.982 374.063 382.137 373.807 382.242C373.551 382.347 373.277 382.4 373 382.399H345.37C344.074 382.397 342.807 382.011 341.73 381.289Z" fill="#F0F0F0"/>
<path d="M367.129 378.4V366.57H349.559V378.4H367.129Z" fill="#FAFAFA"/>
<path d="M390.89 349.001L390.45 348.341C389.189 346.47 388.409 344.316 388.18 342.071L386.82 329.001C386.952 328.993 387.076 328.933 387.164 328.833C387.253 328.734 387.298 328.604 387.29 328.471C387.282 328.338 387.221 328.214 387.122 328.126C387.023 328.038 386.892 327.993 386.76 328.001H381.41C381.277 327.993 381.147 328.038 381.047 328.126C380.948 328.214 380.888 328.338 380.88 328.471C380.872 328.604 380.917 328.734 381.005 328.833C381.093 328.933 381.217 328.993 381.35 329.001L380 342.051C379.761 344.294 378.982 346.445 377.73 348.321L377.28 348.981C376.561 350.059 376.178 351.325 376.18 352.621V380.301C376.18 380.858 376.401 381.392 376.795 381.786C377.189 382.18 377.723 382.401 378.28 382.401H389.9C390.457 382.401 390.991 382.18 391.385 381.786C391.778 381.392 392 380.858 392 380.301V352.621C391.994 351.331 391.608 350.072 390.89 349.001Z" fill="#F0F0F0"/>
<path d="M390.752 356.801H378.922V374.371H390.752V356.801Z" fill="#FAFAFA"/>
<path d="M409.331 149.328H367.121V160.998H409.331V149.328Z" fill="#F0F0F0"/>
<path d="M430.44 161H388.23V172.67H430.44V161Z" fill="#F5F5F5"/>
<path d="M105.741 295H63.5312V306.67H105.741V295Z" fill="#F0F0F0"/>
<path d="M219.491 318.172H177.281V329.842H219.491V318.172Z" fill="#F0F0F0"/>
<path d="M147.948 295H105.738V306.67H147.948V295Z" fill="#FAFAFA"/>
<path d="M397.269 289.172H355.059V300.842H397.269V289.172Z" fill="#FAFAFA"/>
<path d="M126.851 306.672H84.6406V318.342H126.851V306.672Z" fill="#F5F5F5"/>
<path d="M244.999 427.562C352.082 427.562 438.889 422.494 438.889 416.242C438.889 409.99 352.082 404.922 244.999 404.922C137.917 404.922 51.1094 409.99 51.1094 416.242C51.1094 422.494 137.917 427.562 244.999 427.562Z" fill="#F5F5F5"/>
<path d="M314.778 40.3281C314.162 40.3281 313.571 40.5722 313.134 41.007C312.697 41.4418 312.451 42.0319 312.448 42.6481L310.328 416.238H319.218L317.108 42.6481C317.103 42.0327 316.855 41.4442 316.419 41.0099C315.983 40.5757 315.394 40.3307 314.778 40.3281Z" fill="#263238"/>
<path d="M311.449 218.967L318.069 212.727L317.989 205.617L311.479 214.327L311.449 218.967Z" fill="black"/>
<path d="M319.791 258.328H309.771L307.891 416.238H321.671L319.791 258.328Z" fill="#263238"/>
<path opacity="0.3" d="M368.529 61.7129L346.11 66.0788C343.476 66.5919 341.756 69.1436 342.269 71.7782L342.64 73.6824C343.153 76.317 345.704 78.0369 348.339 77.5238L370.758 73.1579C373.393 72.6448 375.112 70.0931 374.599 67.4585L374.228 65.5543C373.715 62.9197 371.164 61.1998 368.529 61.7129Z" fill="#A82700"/>
<path d="M376.92 64.2387L307.82 77.6888C307.192 77.8006 306.545 77.6623 306.018 77.3035C305.491 76.9447 305.126 76.3938 305 75.7687C304.937 75.4554 304.938 75.1329 305 74.8196C305.063 74.5064 305.188 74.2087 305.366 73.9438C305.545 73.6788 305.774 73.4518 306.04 73.2759C306.307 73.1 306.606 72.9786 306.92 72.9187L376 59.4688L376.92 64.2387Z" fill="#263238"/>
<path d="M319.56 73.8286C319.562 74.7744 319.283 75.6996 318.759 76.4869C318.235 77.2743 317.489 77.8885 316.616 78.2519C315.743 78.6152 314.781 78.7113 313.854 78.528C312.926 78.3447 312.073 77.8902 311.404 77.2221C310.734 76.554 310.278 75.7023 310.093 74.7748C309.907 73.8473 310.001 72.8857 310.363 72.0117C310.724 71.1377 311.337 70.3905 312.123 69.8649C312.91 69.3392 313.834 69.0586 314.78 69.0586C316.046 69.0586 317.26 69.5608 318.156 70.4551C319.053 71.3493 319.557 72.5626 319.56 73.8286Z" fill="#263238"/>
<path d="M189.489 302.5L185.409 413C185.381 413.867 185.016 414.688 184.393 415.291C183.77 415.894 182.936 416.23 182.069 416.23H124.779C123.911 416.231 123.077 415.894 122.452 415.292C121.827 414.689 121.46 413.868 121.429 413L117.359 302.5H189.489Z" fill="#A82700"/>
<path opacity="0.3" d="M186.07 340.34L187.43 358.34L187.94 344.34L186.07 340.34Z" fill="#263238"/>
<path opacity="0.2" d="M117.359 302.5L117.419 304.12L189.339 306.67L189.489 302.5H117.359Z" fill="#263238"/>
<path opacity="0.4" d="M117.691 311.672L117.761 313.552H189.081L189.151 311.672H117.691Z" fill="#263238"/>
<path d="M189.191 312.609H117.651C117.406 312.594 117.175 312.491 117.002 312.318C116.829 312.144 116.725 311.913 116.711 311.669C116.723 311.422 116.825 311.189 116.999 311.014C117.172 310.838 117.405 310.733 117.651 310.719H189.191C189.437 310.733 189.669 310.838 189.843 311.014C190.016 311.189 190.119 311.422 190.131 311.669C190.117 311.913 190.013 312.144 189.84 312.318C189.666 312.491 189.436 312.594 189.191 312.609Z" fill="#A82700"/>
<path opacity="0.4" d="M120.77 395.172L120.84 397.062H186L186.07 395.172H120.77Z" fill="#263238"/>
<path d="M186.321 396.11H120.531C120.276 396.111 120.03 396.014 119.845 395.839C119.659 395.664 119.547 395.425 119.531 395.17C119.547 394.916 119.659 394.677 119.845 394.502C120.03 394.327 120.276 394.23 120.531 394.23H186.321C186.566 394.245 186.797 394.348 186.97 394.522C187.143 394.695 187.247 394.926 187.261 395.17C187.247 395.415 187.143 395.646 186.97 395.819C186.797 395.993 186.566 396.096 186.321 396.11Z" fill="#A82700"/>
<path opacity="0.1" d="M153.411 389.002C153.101 389.002 152.794 388.941 152.508 388.822C152.221 388.704 151.961 388.53 151.742 388.311C151.523 388.091 151.349 387.831 151.23 387.545C151.112 387.259 151.051 386.952 151.051 386.642V320.522C151.053 319.898 151.303 319.3 151.746 318.86C152.188 318.419 152.787 318.172 153.411 318.172C154.033 318.175 154.629 318.423 155.07 318.863C155.51 319.303 155.758 319.899 155.761 320.522V386.662C155.756 387.283 155.506 387.876 155.066 388.314C154.626 388.752 154.032 388.999 153.411 389.002Z" fill="#263238"/>
<path opacity="0.1" d="M141.002 388.998C140.321 388.941 139.687 388.629 139.226 388.125C138.764 387.621 138.509 386.962 138.512 386.278L135.142 320.868C135.099 320.542 135.123 320.211 135.213 319.895C135.302 319.578 135.456 319.283 135.664 319.029C135.872 318.774 136.13 318.564 136.422 318.413C136.714 318.262 137.034 318.172 137.362 318.148C138.044 318.206 138.679 318.518 139.142 319.021C139.605 319.525 139.862 320.184 139.862 320.868L143.222 386.278C143.265 386.605 143.241 386.936 143.151 387.252C143.061 387.569 142.908 387.863 142.7 388.118C142.492 388.373 142.234 388.583 141.942 388.734C141.65 388.885 141.33 388.975 141.002 388.998Z" fill="#263238"/>
<path opacity="0.1" d="M128.713 388.998C128.032 388.941 127.398 388.629 126.937 388.125C126.475 387.621 126.22 386.962 126.223 386.278L122.853 320.868C122.81 320.542 122.834 320.211 122.924 319.895C123.013 319.578 123.167 319.283 123.375 319.029C123.583 318.774 123.841 318.564 124.133 318.413C124.425 318.262 124.745 318.172 125.073 318.148C125.754 318.208 126.388 318.521 126.85 319.024C127.313 319.527 127.57 320.185 127.573 320.868L130.933 386.278C130.976 386.605 130.952 386.936 130.862 387.252C130.772 387.569 130.619 387.863 130.411 388.118C130.203 388.373 129.945 388.583 129.653 388.734C129.361 388.885 129.041 388.975 128.713 388.998Z" fill="#263238"/>
<path opacity="0.1" d="M165.56 388.998C166.242 388.941 166.877 388.629 167.34 388.126C167.803 387.622 168.06 386.963 168.06 386.278L171.42 320.868C171.463 320.542 171.439 320.211 171.349 319.895C171.259 319.578 171.106 319.283 170.898 319.029C170.69 318.774 170.432 318.564 170.14 318.413C169.848 318.262 169.528 318.172 169.2 318.148C168.519 318.206 167.885 318.518 167.424 319.022C166.962 319.526 166.707 320.185 166.71 320.868L163.34 386.278C163.298 386.604 163.323 386.935 163.414 387.251C163.504 387.567 163.658 387.861 163.865 388.115C164.073 388.37 164.331 388.579 164.622 388.731C164.913 388.883 165.232 388.974 165.56 388.998Z" fill="#263238"/>
<path opacity="0.1" d="M177.853 388.998C178.535 388.941 179.17 388.629 179.633 388.126C180.096 387.622 180.353 386.963 180.353 386.278L183.713 320.868C183.756 320.542 183.732 320.211 183.642 319.895C183.552 319.578 183.399 319.283 183.191 319.029C182.983 318.774 182.725 318.564 182.433 318.413C182.141 318.262 181.821 318.172 181.493 318.148C180.812 318.206 180.178 318.518 179.716 319.022C179.255 319.526 179 320.185 179.003 320.868L175.633 386.278C175.591 386.604 175.616 386.935 175.707 387.251C175.797 387.567 175.951 387.861 176.158 388.115C176.366 388.37 176.623 388.579 176.915 388.731C177.206 388.883 177.525 388.974 177.853 388.998Z" fill="#263238"/>
<path d="M213.001 410.378L193.791 342.448C193.632 341.885 193.296 341.387 192.834 341.027C192.372 340.667 191.807 340.464 191.221 340.448L186.031 340.328L207.501 416.228L211.861 413.408C212.35 413.091 212.724 412.626 212.929 412.08C213.134 411.535 213.159 410.939 213.001 410.378Z" fill="#A82700"/>
<path d="M203.643 373.891C204.288 373.889 204.92 374.078 205.458 374.436C205.995 374.793 206.415 375.302 206.663 375.898C206.911 376.495 206.976 377.151 206.851 377.784C206.725 378.417 206.414 378.999 205.958 379.456C205.501 379.912 204.92 380.223 204.286 380.348C203.653 380.474 202.997 380.409 202.401 380.161C201.805 379.913 201.295 379.493 200.938 378.956C200.581 378.418 200.391 377.786 200.393 377.141C200.395 376.279 200.739 375.454 201.348 374.845C201.957 374.237 202.782 373.893 203.643 373.891ZM203.643 371.891C202.602 371.891 201.585 372.199 200.719 372.778C199.854 373.356 199.18 374.178 198.782 375.14C198.384 376.102 198.281 377.16 198.485 378.18C198.688 379.201 199.19 380.138 199.927 380.874C200.664 381.609 201.602 382.109 202.623 382.311C203.644 382.513 204.702 382.407 205.663 382.007C206.624 381.608 207.444 380.932 208.021 380.066C208.598 379.199 208.905 378.181 208.903 377.141C208.903 376.45 208.767 375.767 208.502 375.129C208.238 374.492 207.85 373.912 207.362 373.425C206.873 372.937 206.293 372.551 205.655 372.287C205.017 372.024 204.333 371.889 203.643 371.891Z" fill="#A82700"/>
<path d="M276.761 174.91L274.831 178L272.831 181.17C271.531 183.29 270.301 185.43 269.121 187.55C267.941 189.67 266.891 191.81 265.981 193.87C265.177 195.665 264.55 197.534 264.111 199.45C263.801 201.66 263.571 204.27 263.371 206.8L262.771 214.58C262.351 219.8 261.931 225.08 261.261 230.35C261.167 231.308 260.732 232.199 260.034 232.862C259.336 233.524 258.423 233.913 257.462 233.956C256.501 234 255.556 233.696 254.801 233.1C254.046 232.504 253.531 231.655 253.351 230.71C252.181 225.42 251.351 220.14 250.731 214.8C250.431 212.13 250.131 209.44 249.961 206.72C249.733 203.897 249.649 201.063 249.711 198.23C249.922 194.907 250.595 191.629 251.711 188.49C252.191 187.05 252.711 185.65 253.251 184.29C253.791 182.93 254.411 181.63 255.021 180.29C256.241 177.71 257.591 175.23 259.021 172.82C259.741 171.61 260.461 170.42 261.221 169.25C261.981 168.08 262.741 166.96 263.651 165.69C264.866 164.004 266.69 162.857 268.736 162.492C270.782 162.126 272.89 162.572 274.614 163.734C276.337 164.896 277.541 166.683 277.97 168.717C278.398 170.751 278.019 172.872 276.911 174.63L276.761 174.91Z" fill="#23313E"/>
<path d="M255.148 231.463L257.288 241.463L262.218 234.973C262.218 234.973 261.048 227.823 257.828 229.103L255.148 231.463Z" fill="#CE7A63"/>
<path d="M280.462 403.88L273.902 407.59L268.102 392.74L274.672 389.02L280.462 403.88Z" fill="#CE7A63"/>
<path d="M272.999 405.54L280.759 402.03C280.884 401.967 281.028 401.955 281.161 401.998C281.294 402.042 281.405 402.135 281.469 402.26L284.329 408.04C284.457 408.365 284.455 408.728 284.323 409.052C284.191 409.376 283.939 409.637 283.619 409.78C280.899 410.95 279.549 411.38 276.129 412.92C274.029 413.87 267.249 416.49 264.129 416.22C261.009 415.95 261.529 412.9 262.879 412.74C268.879 412 270.639 408.85 271.969 406.48C272.203 406.064 272.564 405.735 272.999 405.54Z" fill="#263238"/>
<path opacity="0.2" d="M274.672 389.02L268.102 392.74L271.092 400.4L277.662 396.68L274.672 389.02Z" fill="black"/>
<path d="M259.74 227C259.74 227 247.44 280.82 243.55 301.87C239.3 324.92 266.67 397.57 266.67 397.57L279.06 392.33C279.78 394.45 261.97 316.68 264.34 308.21C271.15 283.89 286.24 227 286.24 227H259.74Z" fill="#A82700"/>
<path opacity="0.4" d="M259.74 227C259.74 227 247.44 280.82 243.55 301.87C239.3 324.92 266.67 397.57 266.67 397.57L279.06 392.33C279.78 394.45 261.97 316.68 264.34 308.21C271.15 283.89 286.24 227 286.24 227H259.74Z" fill="#A82700"/>
<path opacity="0.3" d="M274.548 241.67C268.868 254.46 267.938 280.07 269.628 288.98C273.938 274.13 277.698 256.53 281.058 242.92C280.228 239.43 277.998 233.89 274.548 241.67Z" fill="black"/>
<path d="M280 392.909L266.77 399.729L263.25 395.419L278.86 388.539L280 392.909Z" fill="#263238"/>
<path d="M271.052 407.81C271.665 407.511 272.248 407.153 272.792 406.74C272.82 406.721 272.842 406.693 272.855 406.661C272.867 406.629 272.87 406.594 272.862 406.56C272.858 406.527 272.843 406.497 272.819 406.473C272.796 406.449 272.765 406.434 272.732 406.43C272.452 406.38 269.952 405.97 269.242 406.67C269.162 406.748 269.103 406.845 269.069 406.951C269.036 407.058 269.03 407.171 269.052 407.28C269.067 407.446 269.127 407.605 269.226 407.739C269.324 407.873 269.458 407.977 269.612 408.04C270.104 408.142 270.616 408.06 271.052 407.81ZM272.262 406.71C271.122 407.51 270.202 407.88 269.742 407.71C269.643 407.668 269.559 407.599 269.498 407.51C269.438 407.421 269.405 407.317 269.402 407.21C269.385 407.158 269.384 407.102 269.398 407.049C269.412 406.996 269.441 406.948 269.482 406.91C269.862 406.53 271.252 406.58 272.262 406.71Z" fill="#A82700"/>
<path d="M272.759 406.762L272.829 406.712C272.841 406.685 272.848 406.656 272.848 406.627C272.848 406.597 272.841 406.568 272.829 406.542C272.829 406.462 272.149 404.462 271.179 404.132C271.052 404.085 270.917 404.068 270.783 404.084C270.649 404.1 270.521 404.147 270.409 404.222C270.275 404.286 270.164 404.392 270.094 404.523C270.024 404.654 269.998 404.804 270.019 404.952C270.169 405.752 271.779 406.692 272.639 406.772C272.658 406.779 272.679 406.782 272.7 406.78C272.721 406.779 272.741 406.772 272.759 406.762ZM270.679 404.472C270.742 404.445 270.81 404.431 270.879 404.431C270.948 404.431 271.016 404.445 271.079 404.472C271.659 404.672 272.179 405.752 272.429 406.392C271.619 406.172 270.489 405.392 270.429 404.892C270.429 404.792 270.429 404.662 270.649 404.532L270.679 404.472Z" fill="#A82700"/>
<path d="M291.571 408.67H284.161L283.941 391.5H291.361L291.571 408.67Z" fill="#CE7A63"/>
<path d="M283.811 407.813H292.141C292.209 407.81 292.277 407.821 292.341 407.846C292.404 407.87 292.462 407.908 292.511 407.956C292.56 408.003 292.598 408.061 292.624 408.124C292.65 408.187 292.662 408.255 292.661 408.323L292.781 414.913C292.763 415.262 292.614 415.59 292.363 415.834C292.113 416.077 291.78 416.216 291.431 416.223C288.531 416.173 287.151 416.003 283.491 416.003C281.231 416.003 275.491 416.243 272.351 416.243C269.211 416.243 269.461 413.163 270.801 412.883C276.801 411.633 280.351 409.883 282.511 408.273C282.882 407.981 283.339 407.819 283.811 407.813Z" fill="#263238"/>
<path opacity="0.2" d="M291.361 391.5H283.941L284.061 400.35H291.471L291.361 391.5Z" fill="black"/>
<path d="M274.22 227.002C274.22 227.002 272.16 277.002 272.91 298.212C273.72 321.422 280.97 398.212 280.97 398.212H294.55C294.55 398.212 293.46 322.852 294.78 299.832C296.21 274.832 299.39 226.992 299.39 226.992L274.22 227.002Z" fill="#A82700"/>
<path opacity="0.4" d="M274.22 227.002C274.22 227.002 272.16 277.002 272.91 298.212C273.72 321.422 280.97 398.212 280.97 398.212H294.55C294.55 398.212 293.46 322.852 294.78 299.832C296.21 274.832 299.39 226.992 299.39 226.992L274.22 227.002Z" fill="#A82700"/>
<path d="M295.098 398.223H280.418L279.828 393.062L295.988 393.872L295.098 398.223Z" fill="#263238"/>
<path d="M281.119 409.102C281.793 409.085 282.463 408.997 283.119 408.842C283.152 408.832 283.183 408.815 283.207 408.79C283.232 408.766 283.25 408.735 283.259 408.702C283.266 408.669 283.263 408.636 283.251 408.605C283.238 408.575 283.217 408.549 283.189 408.532C282.959 408.362 280.929 406.932 280.009 407.282C279.903 407.323 279.809 407.389 279.734 407.474C279.659 407.559 279.606 407.661 279.579 407.771C279.522 407.93 279.509 408.101 279.54 408.266C279.572 408.431 279.647 408.585 279.759 408.711C280.147 409.008 280.633 409.147 281.119 409.102ZM282.649 408.592C281.309 408.852 280.329 408.811 279.999 408.461C279.929 408.378 279.884 408.277 279.868 408.169C279.852 408.062 279.866 407.952 279.909 407.852C279.918 407.796 279.941 407.744 279.976 407.701C280.011 407.657 280.057 407.623 280.109 407.602C280.599 407.412 281.809 408.002 282.649 408.592Z" fill="#A82700"/>
<path d="M283.071 408.84H283.151C283.178 408.827 283.202 408.808 283.219 408.783C283.237 408.759 283.248 408.73 283.251 408.7C283.251 408.61 283.521 406.48 282.801 405.76C282.711 405.663 282.598 405.59 282.472 405.548C282.346 405.506 282.212 405.497 282.081 405.52C281.932 405.528 281.789 405.582 281.672 405.675C281.555 405.769 281.471 405.896 281.431 406.04C281.231 406.85 282.271 408.4 282.981 408.84H283.071ZM282.191 405.84C282.258 405.84 282.325 405.852 282.387 405.878C282.449 405.904 282.505 405.942 282.551 405.99C282.934 406.71 283.071 407.536 282.941 408.34C282.321 407.8 281.631 406.62 281.771 406.09C281.771 405.99 281.861 405.87 282.111 405.84H282.191Z" fill="#A82700"/>
<path d="M302.719 194.389C305.109 184.509 304.179 173.959 305.719 167.209C305.869 166.605 305.891 165.976 305.784 165.363C305.677 164.75 305.442 164.166 305.096 163.648C304.749 163.131 304.298 162.692 303.771 162.36C303.245 162.028 302.655 161.81 302.039 161.719H301.949C299.579 161.369 296.589 161.009 293.659 160.869C288.047 160.549 282.421 160.549 276.809 160.869C274.209 161.109 271.659 161.539 269.619 161.929C269.049 162.039 268.529 162.149 268.069 162.259C267.248 162.446 266.487 162.834 265.855 163.389C265.223 163.945 264.739 164.649 264.449 165.439C262.829 169.829 259.999 180.759 261.279 194.979C257.549 202.719 258.599 222.789 259.779 226.979H299.429C300.759 225.529 303.189 208.389 302.719 194.389Z" fill="#23313E"/>
<path opacity="0.3" d="M304.12 185.44L299.4 176.5C299.05 181.01 301.31 189.72 302.73 194.64C302.73 194.56 302.73 194.47 302.73 194.39C303.407 191.444 303.872 188.453 304.12 185.44Z" fill="black"/>
<path d="M282.61 119.609C276.22 122.059 269.61 127.249 270.25 138.239C270.57 143.549 276.53 152.109 271.56 154.779C272.04 158.529 274.71 163.279 274.71 163.279L290.11 157.199C290.11 157.199 292.13 120.799 282.61 119.609Z" fill="#263238"/>
<path d="M306.189 164.001C306.769 164.801 307.189 165.421 307.679 166.131L308.999 168.201C309.869 169.591 310.689 171.011 311.489 172.441C313.084 175.344 314.519 178.332 315.789 181.391C317.114 184.569 318.187 187.845 318.999 191.191C319.42 192.973 319.727 194.78 319.919 196.601V196.951L319.979 197.581C320.013 198.067 320.013 198.555 319.979 199.041C319.941 199.791 319.844 200.536 319.689 201.271C319.446 202.377 319.111 203.46 318.689 204.511C317.99 206.207 317.178 207.854 316.259 209.441C315.409 210.931 314.549 212.341 313.629 213.701C311.799 216.401 309.929 218.981 307.949 221.451C304.058 226.385 299.87 231.077 295.409 235.501C294.719 236.174 293.809 236.574 292.847 236.63C291.885 236.685 290.936 236.392 290.173 235.803C289.41 235.214 288.886 234.37 288.696 233.425C288.506 232.48 288.663 231.499 289.139 230.661L289.189 230.591C292.189 225.371 295.329 220.121 298.239 214.921C299.679 212.301 301.119 209.721 302.379 207.141C302.999 205.851 303.629 204.581 304.159 203.331C304.657 202.202 305.075 201.039 305.409 199.851C305.529 199.467 305.606 199.072 305.639 198.671C305.639 198.541 305.639 198.551 305.639 198.671C305.627 198.777 305.627 198.885 305.639 198.991V199.101C305.639 199.161 305.639 199.101 305.639 199.041L305.589 198.831C305.326 197.626 304.992 196.437 304.589 195.271C303.697 192.733 302.652 190.252 301.459 187.841C300.229 185.361 298.889 182.841 297.459 180.401C296.759 179.161 296.019 177.941 295.279 176.721L294.169 174.911L293.109 173.221L292.939 172.951C291.888 171.192 291.552 169.096 292.001 167.096C292.449 165.096 293.648 163.345 295.351 162.204C297.053 161.062 299.128 160.617 301.148 160.961C303.169 161.305 304.98 162.411 306.209 164.051L306.189 164.001Z" fill="#23313E"/>
<path d="M277.57 160.801C282.52 159.641 283.51 156.611 283.33 153.281C283.285 152.45 283.192 151.621 283.05 150.801L289.41 145.701L294.08 141.961C292.6 147.391 290.75 157.281 294.27 160.901L281.33 163.611L277.57 160.801Z" fill="#CE7A63"/>
<path opacity="0.2" d="M283.051 150.799C283.192 151.62 283.286 152.448 283.331 153.279C285.641 152.819 289.191 150.779 289.631 148.199C289.664 147.36 289.591 146.52 289.411 145.699L283.051 150.799Z" fill="black"/>
<path d="M294.189 130.999C294.719 138.329 295.409 142.559 292.249 147.049C287.489 153.809 278.099 152.399 275.399 145.539C272.959 139.369 272.499 128.429 279.209 124.039C285.919 119.649 293.659 123.679 294.189 130.999Z" fill="#CE7A63"/>
<path d="M278.999 136.633C278.536 138.595 277.816 140.488 276.859 142.263C278.039 143.013 279.749 142.193 279.749 142.193L278.999 136.633Z" fill="#BA4D3C"/>
<path d="M297.91 137.59C297.176 139.285 295.904 140.691 294.29 141.59C292.22 142.7 291.13 140.87 291.66 138.59C292.15 136.52 293.8 133.45 295.91 133.3C298.02 133.15 298.83 135.44 297.91 137.59Z" fill="#CE7A63"/>
<path opacity="0.8" d="M272.462 138.92C272.862 141.25 280.042 135.84 293.762 139.6C296.552 135.14 292.392 128.42 285.682 127.2C278.972 125.98 271.192 131.36 272.462 138.92Z" fill="#263238"/>
<path d="M276.35 132.201C283.69 132.421 291.8 134.421 292.25 147.061C292.46 153.161 285.49 156.891 285.49 156.891L289.91 164.281L297.74 165.861L303.65 162.311C303.65 162.311 302.01 154.561 304.07 142.581C307.44 122.951 302.12 108.861 279.83 120.861C272 125.101 276.35 132.201 276.35 132.201Z" fill="#263238"/>
<path d="M276.349 132.202C273.289 132.672 273.279 135.642 273.979 142.582C270.429 139.502 271.409 132.042 272.259 130.032C274.439 124.822 278.509 125.032 278.509 125.032C278.509 125.032 279.429 131.412 276.349 132.202Z" fill="#263238"/>
<path d="M290.07 166.312C289.71 164.113 287.99 159.583 288.07 158.633L287.57 158.062C287.3 159.913 290.74 167.003 287.79 172.723C289.4 174.283 289.73 172.723 289.73 172.723C289.73 172.723 290.74 170.452 290.07 166.312Z" fill="white"/>
<path d="M274.82 165.791C274.74 163.561 273.61 158.851 273.82 157.911L273.4 157.281C272.89 159.081 275.4 166.551 271.75 171.851C273.15 173.601 273.67 172.101 273.67 172.101C273.67 172.101 275 170.001 274.82 165.791Z" fill="white"/>
<path d="M283.458 135.69C283.538 136.28 283.288 136.82 282.898 136.91C282.508 137 282.138 136.58 282.058 135.99C281.978 135.4 282.228 134.86 282.608 134.77C282.988 134.68 283.378 135.1 283.458 135.69Z" fill="#263238"/>
<path d="M276.8 136.779C276.88 137.369 276.63 137.919 276.25 137.999C275.87 138.079 275.49 137.669 275.41 137.079C275.33 136.489 275.57 135.949 275.96 135.869C276.35 135.789 276.72 136.199 276.8 136.779Z" fill="#263238"/>
<path d="M281.79 144.351C283.008 144.113 284.21 143.803 285.39 143.421C285.43 143.394 285.458 143.354 285.469 143.307C285.48 143.261 285.473 143.212 285.45 143.171C285.418 143.139 285.375 143.121 285.33 143.121C285.285 143.121 285.242 143.139 285.21 143.171C283.864 143.621 282.483 143.955 281.08 144.171C281.034 144.178 280.992 144.2 280.961 144.235C280.93 144.27 280.912 144.314 280.91 144.361C280.911 144.384 280.917 144.407 280.928 144.428C280.938 144.448 280.953 144.467 280.97 144.482C280.988 144.497 281.009 144.508 281.031 144.515C281.054 144.521 281.077 144.523 281.1 144.521C281.334 144.48 281.564 144.424 281.79 144.351Z" fill="#263238"/>
<path d="M290.8 230.531L284 236.681L293.12 238.381C293.12 238.381 296.4 234.171 295.02 231.501L290.8 230.531Z" fill="#CE7A63"/>
<path d="M286.168 234.73C284.931 235.436 283.835 236.365 282.938 237.47C282.36 238.284 281.715 239.046 281.008 239.75C280.951 239.814 280.912 239.891 280.896 239.974C280.879 240.058 280.886 240.144 280.914 240.224C280.943 240.304 280.993 240.375 281.059 240.429C281.125 240.483 281.204 240.518 281.288 240.53C281.858 240.61 283.208 240.22 284.658 238.77C286.488 238.65 288.658 235.93 288.658 235.93L286.168 234.73Z" fill="#CE7A63"/>
<path d="M284.176 241.601L283.266 241.465L282.117 249.17L283.027 249.305L284.176 241.601Z" fill="white"/>
<path opacity="0.7" d="M284.16 241.62L283.25 241.484L282.829 244.303L283.739 244.439L284.16 241.62Z" fill="#A82700"/>
<path d="M282.779 243.231L288.549 244.061C288.799 244.095 289.054 244.056 289.282 243.95C289.511 243.843 289.704 243.674 289.839 243.461L293.139 238.381L284.139 236.711L281.929 241.541C281.847 241.705 281.804 241.886 281.805 242.07C281.805 242.254 281.848 242.435 281.931 242.599C282.013 242.763 282.133 242.906 282.28 243.016C282.428 243.125 282.598 243.199 282.779 243.231Z" fill="#CE7A63"/>
<g opacity="0.1">
<path d="M275.57 131.252C275.52 131.251 275.472 131.236 275.431 131.207C275.39 131.179 275.358 131.139 275.34 131.092C275.068 130.251 275.003 129.357 275.153 128.486C275.303 127.615 275.662 126.793 276.2 126.092C278.04 123.562 283.32 118.822 291.48 117.162C291.513 117.155 291.546 117.154 291.579 117.161C291.611 117.167 291.642 117.18 291.669 117.199C291.696 117.217 291.719 117.242 291.737 117.27C291.754 117.298 291.766 117.329 291.77 117.362C291.782 117.426 291.769 117.491 291.734 117.545C291.698 117.599 291.643 117.638 291.58 117.652C283.58 119.282 278.4 123.912 276.58 126.392C276.097 127.026 275.773 127.766 275.634 128.55C275.494 129.335 275.545 130.141 275.78 130.902C275.793 130.932 275.8 130.965 275.8 130.997C275.799 131.03 275.793 131.062 275.779 131.092C275.766 131.122 275.747 131.149 275.723 131.172C275.699 131.194 275.671 131.211 275.64 131.222L275.57 131.252Z" fill="white"/>
<path d="M300.489 161.673C300.43 161.672 300.372 161.65 300.327 161.612C300.281 161.574 300.25 161.521 300.239 161.463C299.139 155.283 299.669 146.463 300.679 140.463C301.499 135.593 302.209 128.623 298.869 124.393C295.529 120.163 286.869 119.083 286.819 119.073C286.786 119.068 286.755 119.057 286.726 119.04C286.697 119.024 286.672 119.001 286.652 118.975C286.633 118.948 286.618 118.918 286.61 118.886C286.601 118.854 286.599 118.821 286.604 118.788C286.609 118.755 286.62 118.723 286.636 118.695C286.653 118.666 286.676 118.641 286.702 118.621C286.728 118.601 286.759 118.587 286.791 118.578C286.823 118.57 286.856 118.568 286.889 118.573C287.249 118.573 295.889 119.783 299.269 124.083C302.649 128.383 302.009 135.583 301.179 140.543C300.179 146.543 299.639 155.283 300.729 161.403C300.736 161.435 300.737 161.468 300.73 161.501C300.724 161.533 300.711 161.564 300.692 161.591C300.674 161.619 300.649 161.642 300.621 161.659C300.593 161.677 300.562 161.688 300.529 161.693L300.489 161.673Z" fill="white"/>
<path d="M293.138 216.473C293.105 216.474 293.072 216.469 293.041 216.457C293.01 216.445 292.982 216.426 292.958 216.403C287.958 211.643 284.568 202.963 284.528 202.873C284.517 202.842 284.511 202.809 284.512 202.776C284.513 202.743 284.52 202.711 284.534 202.68C284.547 202.65 284.566 202.623 284.59 202.6C284.614 202.578 284.642 202.56 284.673 202.548C284.704 202.536 284.737 202.53 284.77 202.531C284.803 202.532 284.836 202.54 284.866 202.553C284.896 202.567 284.923 202.586 284.946 202.61C284.969 202.634 284.987 202.662 284.998 202.693C284.998 202.773 288.418 211.363 293.308 216.043C293.355 216.091 293.381 216.156 293.381 216.223C293.381 216.29 293.355 216.354 293.308 216.403C293.262 216.446 293.202 216.471 293.138 216.473Z" fill="white"/>
<path d="M261.14 216.473C261.078 216.474 261.018 216.452 260.97 216.413C260.924 216.367 260.898 216.304 260.898 216.238C260.898 216.173 260.924 216.11 260.97 216.063C265.13 211.383 267.2 202.813 267.22 202.723C267.227 202.691 267.241 202.661 267.26 202.634C267.279 202.607 267.303 202.584 267.331 202.566C267.358 202.549 267.389 202.537 267.422 202.531C267.454 202.525 267.488 202.526 267.52 202.533C267.552 202.541 267.583 202.554 267.609 202.573C267.636 202.592 267.659 202.616 267.677 202.644C267.695 202.672 267.707 202.703 267.712 202.735C267.718 202.768 267.717 202.801 267.71 202.833C267.71 202.923 265.59 211.623 261.34 216.393C261.314 216.42 261.283 216.44 261.248 216.454C261.214 216.468 261.177 216.475 261.14 216.473Z" fill="white"/>
</g>
</svg>
