<svg width="86" height="84" viewBox="0 0 86 84" fill="none" xmlns="http://www.w3.org/2000/svg">
<path d="M71.3193 66.6469C72.2594 66.6469 73.0216 65.7655 73.0216 64.6781C73.0216 63.5896 72.2594 62.707 71.3193 62.707H64.1008C63.1607 62.707 62.3984 63.5896 62.3984 64.6781C62.3984 65.7655 63.1607 66.6469 64.1008 66.6469H71.3193Z" fill="#A82700"/>
<path d="M75.855 74.2024C75.2904 71.8057 72.3695 73.6022 72.3695 76.0646V78.9059C72.3695 79.4306 71.9442 79.8559 71.4195 79.8559C70.8949 79.8559 70.4695 79.4306 70.4695 78.9059V71.8492C70.4695 70.1484 69.0907 68.7695 67.3898 68.7695H65.1685C64.9491 68.7695 64.7566 68.9282 64.7566 69.1476C64.7566 70.3772 63.8167 71.364 62.6668 71.7995C60.5435 72.6035 59.3203 74.1914 59.3203 76.3268V81.0403C59.3203 82.1266 60.0816 83.0091 61.0217 83.0091H64.3106H64.9966H70.2804H74.18H74.2562C75.1963 83.0091 75.9585 82.1266 75.9585 81.0403V75.1141C75.9583 74.8365 75.9312 74.5258 75.855 74.2024Z" fill="#A82700"/>
<path d="M20.0864 61.4085C20.3367 62.2416 21.1037 62.8121 21.9736 62.8121H28.0154C29.3308 62.8121 30.2769 61.5479 29.9059 60.2859C29.6594 59.4471 28.8897 58.8711 28.0154 58.8711H21.9736C20.6533 58.8711 19.7066 60.144 20.0864 61.4085Z" fill="#A82700"/>
<path d="M32.9297 52.6023C32.6832 51.7635 31.9135 51.1875 31.0392 51.1875H19.6533C18.333 51.1875 17.3863 52.4604 17.7661 53.7249C18.0164 54.558 18.7834 55.1285 19.6533 55.1285H31.0392C32.3546 55.1285 33.3007 53.8643 32.9297 52.6023Z" fill="#A82700"/>
<path d="M85.0815 1.85064C85.0768 1.48455 84.9102 1.14787 84.6392 0.959373C84.371 0.767608 84.036 0.754533 83.7556 0.917969C83.2324 1.22087 72.388 7.72017 52.8411 33.6128C52.1212 34.5378 51.3891 35.489 50.64 36.4729C41.2223 48.8472 34.1091 59.5522 34.0394 59.6601C33.4673 60.5231 33.6075 61.7597 34.3528 62.4222C34.4582 62.5159 34.5711 62.5932 34.6878 62.6532C35.3917 63.0236 36.2471 62.7992 36.7383 62.0594C36.778 61.999 39.0306 58.6086 42.6593 53.4679C43.6328 52.0887 45.2427 51.3024 46.9294 51.3718L54.6648 51.6899C55.603 51.7291 56.3925 50.8782 56.4264 49.7919C56.4593 48.7045 55.7244 47.7914 54.7852 47.7533L49.0563 47.5164C48.1701 47.4798 47.6769 46.4787 48.2013 45.7634C48.4181 45.4678 48.7728 45.2906 49.1392 45.3029L58.4962 45.6175C59.7791 45.6606 61.0446 45.1729 61.8071 44.1402C68.1685 35.5435 73.665 27.4796 77.3086 22.133C85.1012 10.6958 85.0862 2.20584 85.0815 1.85064Z" fill="#A82700"/>
<path d="M54.5559 71.9809H49.824C47.7357 71.9809 45.8903 70.6247 45.2685 68.6311C44.7553 66.9857 44.1079 64.9095 43.4166 62.6915C42.9858 61.3092 41.0401 61.1966 40.2259 62.3939C39.9285 62.8313 39.9611 63.2133 40.1184 63.7184C40.3057 64.3196 40.4901 64.9115 40.67 65.4886C41.6736 68.7091 39.2673 71.9809 35.894 71.9809H27.543C26.6029 71.9809 25.8416 72.8645 25.8416 73.9519C25.8416 74.092 25.8418 74.2325 25.8416 74.3725C25.8416 74.3732 25.8416 74.374 25.8416 74.3747C25.8416 74.8432 25.7504 78.9509 22.6008 78.9509C21.6127 78.9509 21.1582 77.9713 20.1108 74.6046C19.9245 73.9737 12.3003 48.1018 11.7131 46.0458L11.6962 45.987C11.4087 44.9773 12.1428 43.8855 13.1926 43.883C20.3166 43.8655 30.5242 43.8414 31.4492 43.8394C32.6593 43.8416 34.0323 43.834 35.186 47.8131C35.5803 49.1735 37.3739 49.4726 38.192 48.3163C38.5 47.8811 38.626 47.2749 38.472 46.7645C38.4449 46.6748 38.4243 46.6057 38.4109 46.559C36.702 40.6677 33.8064 39.8984 31.468 39.8984C31.4595 39.8984 31.4501 39.8984 31.4417 39.8984C30.017 39.9028 6.56735 39.9599 6.28878 39.9605C6.28163 39.9606 6.28628 39.9663 6.28628 39.9735C6.28628 39.9811 6.27968 39.9871 6.27205 39.9864C6.10814 39.9708 5.94057 39.9605 5.76589 39.9605C4.36848 39.9605 3.13103 40.5751 2.18719 41.7431C-0.269815 44.7797 -0.0119753 50.7233 0.0256655 51.3912C0.0840088 52.4274 0.826474 53.2326 1.72327 53.2326L6.47777 53.2302C8.69708 53.229 10.651 54.689 11.2773 56.8181C13.6543 64.8977 16.6933 75.2104 16.8935 75.8913C16.8944 75.8946 16.8963 75.899 16.8972 75.9033C16.9008 75.9156 16.9038 75.9279 16.9076 75.9401C17.9216 79.2032 19.0738 82.8919 22.5979 82.8919C22.6628 82.8919 22.7264 82.89 22.7895 82.8872C22.915 82.8818 23.0407 82.8919 23.1663 82.8919H49.6109C52.3201 82.8919 54.411 81.3087 55.4941 78.4355C56.2338 76.4775 56.2545 74.5828 56.2545 74.3736C56.2545 74.3729 56.2545 74.3721 56.2545 74.3714C56.2543 74.2313 56.2545 74.091 56.2545 73.9508C56.2564 72.8645 55.4941 71.9809 54.5559 71.9809ZM5.92488 49.2922C4.5726 49.2925 3.46658 48.1482 3.73669 46.8232C3.93335 45.8585 4.23226 44.981 4.67149 44.4387C4.97544 44.0617 5.30385 43.9015 5.76778 43.9015C7.24612 43.9015 7.83614 45.0205 8.46662 47.2258L8.48356 47.2857C8.76939 48.2903 8.02303 49.2918 6.97864 49.292L5.92488 49.2922ZM52.3784 76.8589C51.8326 78.3058 50.9801 78.952 49.6137 78.952H30.3023C29.3549 78.952 28.7193 77.9226 28.9334 76.9997C29.0811 76.3632 29.6189 75.923 30.2723 75.923H51.6776C52.1786 75.923 52.5569 76.3907 52.3784 76.8589Z" fill="#A82700"/>
</svg>
