<svg width="24" height="24" viewBox="0 0 24 24" fill="none" xmlns="http://www.w3.org/2000/svg">
<mask id="mask0_27_34" style="mask-type:luminance" maskUnits="userSpaceOnUse" x="0" y="0" width="24" height="24">
<path d="M0 0H24V24H0V0Z" fill="white"/>
</mask>
<g mask="url(#mask0_27_34)">
<path d="M2.81003 17.458C2.80003 17.45 2.79003 17.442 2.78003 17.436C2.71603 17.398 2.67803 17.34 2.66403 17.272C2.65203 17.204 2.66803 17.132 2.71003 17.064C3.17403 16.844 6.59003 15.214 7.43403 14.448C7.65203 14.25 7.75603 13.75 7.95003 12.732C7.99403 12.5 8.04203 12.252 8.09403 11.99C8.14403 11.748 8.27603 11.3 8.41403 10.826C8.60403 10.18 8.80003 9.51402 8.86603 9.12002C9.41403 5.80602 9.87003 1.69802 9.87403 1.65802C9.94803 0.944018 10.104 0.218018 10.684 0.218018C11.368 0.218018 11.846 0.648018 11.846 1.26602L11.888 17.072C11.888 18.204 11.458 18.368 10.96 18.558C10.68 18.664 10.364 18.786 10.14 19.084C9.68203 19.696 9.19203 20.508 8.71803 21.294C8.51603 21.628 8.31003 21.972 8.10803 22.294L2.81003 17.458Z" fill="url(#paint0_radial_27_34)"/>
<path d="M10.686 0.415991C11.262 0.415991 11.648 0.755991 11.648 1.26399L11.69 17.068C11.69 18.062 11.372 18.184 10.89 18.368C10.586 18.484 10.24 18.616 9.982 18.96C9.518 19.58 9.026 20.396 8.55 21.188C8.39 21.452 8.228 21.722 8.068 21.982L2.948 17.31C2.93 17.294 2.91 17.278 2.888 17.264C2.87 17.254 2.866 17.244 2.866 17.234C2.864 17.228 2.864 17.22 2.866 17.212C3.526 16.898 6.742 15.35 7.572 14.596C7.838 14.354 7.942 13.862 8.15 12.77C8.194 12.54 8.242 12.29 8.294 12.03C8.342 11.796 8.472 11.352 8.61 10.884C8.802 10.232 9 9.55999 9.066 9.15199C9.614 5.83199 10.07 1.71999 10.076 1.67599C10.168 0.791991 10.35 0.415991 10.686 0.415991ZM10.686 0.0159912C9.892 0.0159912 9.746 0.989991 9.678 1.63399C9.678 1.63399 9.224 5.73799 8.672 9.08599C8.56 9.76399 8.018 11.374 7.902 11.95C7.656 13.158 7.53 14.092 7.302 14.3C6.428 15.094 2.58 16.904 2.58 16.904C2.392 17.142 2.434 17.456 2.676 17.604L8.15 22.6C8.85 21.5 9.612 20.12 10.3 19.2C10.85 18.464 12.088 19 12.088 17.068L12.046 1.26399C12.046 0.575991 11.53 0.0159912 10.686 0.0159912Z" fill="#EDA600"/>
<path d="M8.71397 25.332L-1.38403 25.22L-1.27203 17.456L5.07597 14.606C5.37397 14.474 5.71997 14.64 5.79997 14.956C5.98997 15.698 6.43197 17.014 7.39997 18.334C8.31197 19.578 9.29597 20.538 9.90797 21.086C10.26 21.402 10.36 21.912 10.15 22.336L7.71797 24.206L8.71397 25.332Z" fill="url(#paint1_linear_27_34)"/>
<path d="M9.71997 2.79999C9.71997 2.79999 9.88397 1.76599 10.824 1.76599C11.764 1.76599 11.828 2.79999 11.828 2.79999" stroke="#EDA600" stroke-width="0.695517" stroke-miterlimit="10" stroke-linecap="round" stroke-linejoin="round"/>
<path d="M9.422 5.40002C9.422 5.40002 9.628 4.27002 10.624 4.27002C11.62 4.27002 11.848 5.40002 11.848 5.40002" stroke="#EDA600" stroke-width="0.695517" stroke-miterlimit="10" stroke-linecap="round" stroke-linejoin="round"/>
<path opacity="0.2" d="M5.24192 15.1899C5.44192 15.9399 5.91192 17.3179 6.91592 18.6879C7.84392 19.9519 8.83792 20.9319 9.50792 21.5319C9.62792 21.6399 9.67992 21.8039 9.64992 21.9579L7.36592 23.6239C7.23192 23.7219 7.14592 23.8679 7.12392 24.0319C7.10192 24.1959 7.14992 24.3599 7.25392 24.4879L7.44192 24.7179L-0.77208 24.6259L-0.67408 17.8479L5.24192 15.1899ZM5.29192 14.5599C5.21992 14.5599 5.14792 14.5739 5.07792 14.6059L-1.27008 17.4559L-1.38208 25.2199L8.71592 25.3319L7.71792 24.1079L10.1499 22.3359C10.3599 21.9119 10.2619 21.3999 9.90792 21.0859C9.29592 20.5379 8.31392 19.5799 7.39992 18.3339C6.43192 17.0159 5.98992 15.6999 5.79992 14.9559C5.73992 14.7139 5.52192 14.5599 5.29192 14.5599Z" fill="#424242"/>
</g>
<mask id="mask1_27_34" style="mask-type:luminance" maskUnits="userSpaceOnUse" x="0" y="0" width="24" height="24">
<path d="M0 0H24V24H0V0Z" fill="white"/>
</mask>
<g mask="url(#mask1_27_34)">
<path d="M15.7981 22.292C15.5981 21.97 15.3901 21.626 15.1881 21.292C14.7141 20.506 14.2241 19.692 13.7661 19.082C13.5421 18.784 13.2261 18.662 12.9461 18.556C12.4481 18.366 12.0181 18.202 12.0181 17.07L12.0601 1.26602C12.0601 0.648018 12.5381 0.218018 13.2221 0.218018C13.8021 0.218018 13.9561 0.946018 14.0321 1.65802C14.0361 1.70002 14.4921 5.80802 15.0401 9.12202C15.1041 9.51602 15.3021 10.184 15.4921 10.828C15.6321 11.302 15.7641 11.75 15.8121 11.992C15.8661 12.254 15.9141 12.504 15.9581 12.736C16.1521 13.754 16.2561 14.252 16.4741 14.45C17.3161 15.216 20.7341 16.846 21.1981 17.066C21.2401 17.132 21.2561 17.204 21.2441 17.272C21.2321 17.34 21.1921 17.398 21.1281 17.436C21.1181 17.442 21.1081 17.45 21.0981 17.458L15.7981 22.292Z" fill="url(#paint2_radial_27_34)"/>
<path d="M13.2199 0.415991C13.5559 0.415991 13.7379 0.793991 13.8319 1.67799C13.8359 1.71999 14.2939 5.83199 14.8419 9.15199C14.9079 9.55799 15.1079 10.232 15.2979 10.882C15.4359 11.352 15.5659 11.794 15.6139 12.028C15.6679 12.29 15.7139 12.538 15.7579 12.768C15.9659 13.86 16.0699 14.352 16.3359 14.594C17.1659 15.35 20.3819 16.896 21.0419 17.21C21.0439 17.218 21.0439 17.226 21.0419 17.232C21.0399 17.24 21.0359 17.25 21.0199 17.262C20.9979 17.276 20.9779 17.29 20.9599 17.308L15.8399 21.98C15.6799 21.72 15.5179 21.45 15.3579 21.186C14.8819 20.396 14.3879 19.578 13.9259 18.958C13.6679 18.614 13.3219 18.482 13.0179 18.366C12.5359 18.182 12.2179 18.06 12.2179 17.068L12.2599 1.26199C12.2579 0.755991 12.6459 0.415991 13.2199 0.415991ZM13.2199 0.0159912C12.3759 0.0159912 11.8579 0.575991 11.8579 1.26399L11.8159 17.068C11.8159 19 13.0539 18.464 13.6039 19.2C14.2919 20.12 15.0539 21.5 15.7539 22.6L21.2279 17.606C21.4699 17.458 21.5139 17.144 21.3239 16.906C21.3239 16.906 17.4759 15.096 16.6019 14.302C16.3739 14.094 16.2479 13.16 16.0019 11.952C15.8859 11.376 15.3439 9.76599 15.2319 9.08799C14.6799 5.73999 14.2259 1.63599 14.2259 1.63599C14.1619 0.989991 14.0139 0.0159912 13.2199 0.0159912Z" fill="#EDA600"/>
<path d="M15.19 25.332L25.288 25.22L25.176 17.456L18.828 14.606C18.53 14.474 18.184 14.64 18.104 14.956C17.914 15.698 17.472 17.014 16.504 18.334C15.592 19.578 14.608 20.538 13.996 21.086C13.644 21.402 13.544 21.912 13.754 22.336L16.186 24.206L15.19 25.332Z" fill="url(#paint3_linear_27_34)"/>
<path d="M14.186 2.79999C14.186 2.79999 14.022 1.76599 13.082 1.76599C12.142 1.76599 12.078 2.79999 12.078 2.79999" stroke="#EDA600" stroke-width="0.695517" stroke-miterlimit="10" stroke-linecap="round" stroke-linejoin="round"/>
<path d="M14.484 5.40002C14.484 5.40002 14.278 4.27002 13.282 4.27002C12.284 4.27002 12.058 5.40002 12.058 5.40002" stroke="#EDA600" stroke-width="0.695517" stroke-miterlimit="10" stroke-linecap="round" stroke-linejoin="round"/>
<path opacity="0.2" d="M18.664 15.1899L24.582 17.8459L24.68 24.6239L16.466 24.7159L16.654 24.4859C16.758 24.3579 16.806 24.1939 16.784 24.0299C16.762 23.8659 16.676 23.7199 16.542 23.6219L14.258 21.9559C14.228 21.8019 14.28 21.6379 14.4 21.5299C15.07 20.9299 16.064 19.9499 16.992 18.6859C17.994 17.3179 18.464 15.9399 18.664 15.1899ZM18.614 14.5599C18.382 14.5599 18.166 14.7139 18.104 14.9559C17.914 15.6979 17.472 17.0139 16.504 18.3339C15.592 19.5779 14.608 20.5379 13.996 21.0859C13.644 21.4019 13.544 21.9119 13.754 22.3359L16.186 24.1079L15.188 25.3319L25.286 25.2199L25.174 17.4559L18.828 14.6059C18.758 14.5739 18.686 14.5599 18.614 14.5599Z" fill="#424242"/>
</g>
<defs>
<radialGradient id="paint0_radial_27_34" cx="0" cy="0" r="1" gradientUnits="userSpaceOnUse" gradientTransform="translate(9.50813 7.18906) scale(8.68071 12.9591)">
<stop offset="0.3533" stop-color="#FFCA28"/>
<stop offset="0.8723" stop-color="#FFB300"/>
</radialGradient>
<linearGradient id="paint1_linear_27_34" x1="-1.38267" y1="19.946" x2="10.2584" y2="19.946" gradientUnits="userSpaceOnUse">
<stop stop-color="#2196F3"/>
<stop offset="1" stop-color="#64B5F6"/>
</linearGradient>
<radialGradient id="paint2_radial_27_34" cx="0" cy="0" r="1" gradientUnits="userSpaceOnUse" gradientTransform="translate(14.3939 7.18906) rotate(180) scale(8.68071 12.9591)">
<stop offset="0.3533" stop-color="#FFCA28"/>
<stop offset="0.8723" stop-color="#FFB300"/>
</radialGradient>
<linearGradient id="paint3_linear_27_34" x1="25.288" y1="19.946" x2="13.648" y2="19.946" gradientUnits="userSpaceOnUse">
<stop stop-color="#2196F3"/>
<stop offset="1" stop-color="#64B5F6"/>
</linearGradient>
</defs>
</svg>
