<svg width="70" height="87" viewBox="0 0 70 87" fill="none" xmlns="http://www.w3.org/2000/svg">
<g filter="url(#filter0_d_1568_1564)">
<path d="M11.168 71.918H6.82031V69.1758H11.168C11.8398 69.1758 12.3867 69.0664 12.8086 68.8477C13.2305 68.6211 13.5391 68.3086 13.7344 67.9102C13.9297 67.5117 14.0273 67.0625 14.0273 66.5625C14.0273 66.0547 13.9297 65.582 13.7344 65.1445C13.5391 64.707 13.2305 64.3555 12.8086 64.0898C12.3867 63.8242 11.8398 63.6914 11.168 63.6914H8.03906V78H4.52344V60.9375H11.168C12.5039 60.9375 13.6484 61.1797 14.6016 61.6641C15.5625 62.1406 16.2969 62.8008 16.8047 63.6445C17.3125 64.4883 17.5664 65.4531 17.5664 66.5391C17.5664 67.6406 17.3125 68.5938 16.8047 69.3984C16.2969 70.2031 15.5625 70.8242 14.6016 71.2617C13.6484 71.6992 12.5039 71.918 11.168 71.918ZM25.4531 78.2344C24.4688 78.2344 23.5859 78.0781 22.8047 77.7656C22.0234 77.4453 21.3594 77.0039 20.8125 76.4414C20.2734 75.8789 19.8594 75.2266 19.5703 74.4844C19.2812 73.7344 19.1367 72.9375 19.1367 72.0938V71.625C19.1367 70.6641 19.2734 69.7852 19.5469 68.9883C19.8203 68.1914 20.2109 67.5 20.7188 66.9141C21.2344 66.3281 21.8594 65.8789 22.5938 65.5664C23.3281 65.2461 24.1562 65.0859 25.0781 65.0859C25.9766 65.0859 26.7734 65.2344 27.4688 65.5312C28.1641 65.8281 28.7461 66.25 29.2148 66.7969C29.6914 67.3438 30.0508 68 30.293 68.7656C30.5352 69.5234 30.6562 70.3672 30.6562 71.2969V72.7031H20.5781V70.4531H27.3398V70.1953C27.3398 69.7266 27.2539 69.3086 27.082 68.9414C26.918 68.5664 26.668 68.2695 26.332 68.0508C25.9961 67.832 25.5664 67.7227 25.043 67.7227C24.5977 67.7227 24.2148 67.8203 23.8945 68.0156C23.5742 68.2109 23.3125 68.4844 23.1094 68.8359C22.9141 69.1875 22.7656 69.6016 22.6641 70.0781C22.5703 70.5469 22.5234 71.0625 22.5234 71.625V72.0938C22.5234 72.6016 22.5938 73.0703 22.7344 73.5C22.8828 73.9297 23.0898 74.3008 23.3555 74.6133C23.6289 74.9258 23.957 75.168 24.3398 75.3398C24.7305 75.5117 25.1719 75.5977 25.6641 75.5977C26.2734 75.5977 26.8398 75.4805 27.3633 75.2461C27.8945 75.0039 28.3516 74.6406 28.7344 74.1562L30.375 75.9375C30.1094 76.3203 29.7461 76.6875 29.2852 77.0391C28.832 77.3906 28.2852 77.6797 27.6445 77.9062C27.0039 78.125 26.2734 78.2344 25.4531 78.2344ZM35.8828 68.0273V78H32.5078V65.3203H35.6719L35.8828 68.0273ZM35.3906 71.2148H34.4766C34.4766 70.2773 34.5977 69.4336 34.8398 68.6836C35.082 67.9258 35.4219 67.2812 35.8594 66.75C36.2969 66.2109 36.8164 65.8008 37.418 65.5195C38.0273 65.2305 38.707 65.0859 39.457 65.0859C40.0508 65.0859 40.5938 65.1719 41.0859 65.3438C41.5781 65.5156 42 65.7891 42.3516 66.1641C42.7109 66.5391 42.9844 67.0352 43.1719 67.6523C43.3672 68.2695 43.4648 69.0234 43.4648 69.9141V78H40.0664V69.9023C40.0664 69.3398 39.9883 68.9023 39.832 68.5898C39.6758 68.2773 39.4453 68.0586 39.1406 67.9336C38.8438 67.8008 38.4766 67.7344 38.0391 67.7344C37.5859 67.7344 37.1914 67.8242 36.8555 68.0039C36.5273 68.1836 36.2539 68.4336 36.0352 68.7539C35.8242 69.0664 35.6641 69.4336 35.5547 69.8555C35.4453 70.2773 35.3906 70.7305 35.3906 71.2148ZM55.5703 65.3203V78H52.1836V65.3203H55.5703ZM51.9727 62.0156C51.9727 61.5234 52.1445 61.1172 52.4883 60.7969C52.832 60.4766 53.293 60.3164 53.8711 60.3164C54.4414 60.3164 54.8984 60.4766 55.2422 60.7969C55.5938 61.1172 55.7695 61.5234 55.7695 62.0156C55.7695 62.5078 55.5938 62.9141 55.2422 63.2344C54.8984 63.5547 54.4414 63.7148 53.8711 63.7148C53.293 63.7148 52.832 63.5547 52.4883 63.2344C52.1445 62.9141 51.9727 62.5078 51.9727 62.0156ZM64.5703 65.3203V67.7109H57.1875V65.3203H64.5703ZM59.0156 62.1914H62.3906V74.1797C62.3906 74.5469 62.4375 74.8281 62.5312 75.0234C62.6328 75.2188 62.7812 75.3555 62.9766 75.4336C63.1719 75.5039 63.418 75.5391 63.7148 75.5391C63.9258 75.5391 64.1133 75.5312 64.2773 75.5156C64.4492 75.4922 64.5938 75.4688 64.7109 75.4453L64.7227 77.9297C64.4336 78.0234 64.1211 78.0977 63.7852 78.1523C63.4492 78.207 63.0781 78.2344 62.6719 78.2344C61.9297 78.2344 61.2812 78.1133 60.7266 77.8711C60.1797 77.6211 59.7578 77.2227 59.4609 76.6758C59.1641 76.1289 59.0156 75.4102 59.0156 74.5195V62.1914Z" fill="#F2F2F2"/>
</g>
<path d="M56.0398 40.0116C56.6993 40.0116 57.2341 39.4759 57.2341 38.8151C57.2341 38.1535 56.6993 37.6172 56.0398 37.6172H50.9755C50.316 37.6172 49.7812 38.1535 49.7812 38.8151C49.7812 39.4759 50.316 40.0116 50.9755 40.0116H56.0398Z" fill="#F2F2F2"/>
<path d="M56.7954 42.7855V48.0325H55.4625V41.2949H51.477C51.4624 41.3691 51.4545 41.4466 51.4545 41.5247V42.8331C49.0752 43.0881 47.6406 44.2098 47.6406 45.8878V48.7523C47.6406 49.4125 48.1747 49.9489 48.8342 49.9489H51.1416H51.6229H55.3298H58.0656H58.1191C58.7786 49.9489 59.3134 49.4125 59.3134 48.7523V45.1508C59.3127 44.3972 58.9357 43.2437 56.7954 42.7855Z" fill="#F2F2F2"/>
<path d="M20.3852 37.6881H27.4993L26.6867 35.293H19.5547L20.3852 37.6881Z" fill="#F2F2F2"/>
<path d="M28.8187 30.5977H17.9375L18.768 32.9927H29.6314L28.8187 30.5977Z" fill="#F2F2F2"/>
<path d="M65.6888 0.635668C65.6855 0.413177 65.5686 0.208565 65.3785 0.0940085C65.1904 -0.0225344 64.9553 -0.0304806 64.7586 0.0688457C64.3915 0.252931 56.7836 4.20281 43.0702 19.9388C42.5652 20.5009 42.0515 21.079 41.526 21.677C34.9189 29.1973 29.9286 35.7032 29.8797 35.7687C29.4783 36.2932 29.5767 37.0447 30.0996 37.4473C30.1735 37.5043 30.2527 37.5513 30.3346 37.5877C30.8284 37.8129 31.4285 37.6765 31.7731 37.2268C31.8048 37.1851 33.8435 34.5271 37.0262 30.664L44.3496 30.9249C45.0078 30.9487 45.5617 30.4316 45.5855 29.7714C45.6086 29.1105 45.093 28.5556 44.4341 28.5325L38.9606 28.3365C39.3184 27.9107 39.6861 27.475 40.0624 27.0313L48.452 27.2757C48.7531 27.0035 49.0568 26.6929 49.3604 26.3367C53.8233 21.1121 57.6794 16.2114 60.2357 12.9621C65.7027 6.01121 65.6921 0.851537 65.6888 0.635668Z" fill="#F2F2F2"/>
<path d="M44.2743 43.2458H38.4918C38.2185 42.4869 36.9641 39.0046 35.7157 35.5328C34.9644 36.4724 34.3736 37.224 33.9709 37.7385C34.7769 39.9806 35.5295 42.0711 35.9534 43.2458H25.3231C24.6636 43.2458 24.1295 43.7828 24.1295 44.4437C24.1295 44.4867 24.1315 44.5297 24.1368 44.5715C24.1321 44.6132 24.1295 44.6569 24.1295 44.7006C24.1295 44.9853 24.0655 47.4817 21.8558 47.4817C21.1626 47.4817 20.8438 46.8864 20.109 44.8403C19.9783 44.4569 14.6294 28.7336 14.2175 27.484L14.2056 27.4483C14.1039 27.139 13.9488 26.6715 13.6979 26.1729C18.6011 26.1623 27.3433 26.1445 28.0635 26.1431C28.9125 26.1445 29.8757 26.1398 30.6851 28.5581C30.7492 28.7495 31.0165 29.5037 31.4021 30.5797C31.9335 29.9195 32.5237 29.1931 33.1635 28.4124C33.0532 28.0999 32.9766 27.8833 32.9476 27.7959C31.7487 24.2155 29.7173 23.748 28.0767 23.748C28.0708 23.748 28.0642 23.748 28.0582 23.748C27.0528 23.7507 10.4102 23.7858 10.4102 23.7858V23.8023C10.292 23.7924 10.1712 23.7858 10.0451 23.7858C9.06476 23.7858 8.19661 24.1593 7.53445 24.8691C5.81071 26.7146 5.9916 30.3268 6.01801 30.7327C6.05894 31.3624 6.57982 31.8517 7.20898 31.8517L13.1711 31.8491C14.8618 36.832 17.6894 45.1436 17.8518 45.6223C17.8525 45.6243 17.8538 45.627 17.8544 45.6296C17.8558 45.6336 17.8571 45.6369 17.8577 45.6409C18.5701 47.6267 19.3768 49.8768 21.8538 49.8768C21.9449 49.8768 22.0327 49.8722 22.1206 49.8682C22.1641 49.8735 22.2084 49.8768 22.2526 49.8768H40.8051C42.7057 49.8768 44.1727 48.9147 44.9325 47.1685C45.4515 45.9786 45.466 44.8271 45.466 44.6999C45.466 44.6562 45.4633 44.6125 45.4594 44.5708C45.4633 44.5291 45.466 44.486 45.466 44.443C45.4673 43.7828 44.9325 43.2458 44.2743 43.2458ZM8.40985 29.4573C8.47653 28.4104 8.71024 27.1139 9.27733 26.5073C9.49057 26.2782 9.72098 26.1809 10.0464 26.1809C11.0836 26.1809 11.4975 26.8609 11.9399 28.2012L11.9517 28.2376C12.0079 28.4084 12.1531 28.8388 12.3617 29.4567L8.40985 29.4573ZM42.7467 46.2103C42.3638 47.0897 41.7656 47.4824 40.8071 47.4824H25.8453C26.1576 46.8745 26.3444 46.2276 26.4382 45.6415H42.9401C42.8932 45.8236 42.8312 46.0183 42.7467 46.2103Z" fill="#F2F2F2"/>
<defs>
<filter id="filter0_d_1568_1564" x="0.523438" y="60.3164" width="68.1992" height="25.918" filterUnits="userSpaceOnUse" color-interpolation-filters="sRGB">
<feFlood flood-opacity="0" result="BackgroundImageFix"/>
<feColorMatrix in="SourceAlpha" type="matrix" values="0 0 0 0 0 0 0 0 0 0 0 0 0 0 0 0 0 0 127 0" result="hardAlpha"/>
<feOffset dy="4"/>
<feGaussianBlur stdDeviation="2"/>
<feComposite in2="hardAlpha" operator="out"/>
<feColorMatrix type="matrix" values="0 0 0 0 0 0 0 0 0 0 0 0 0 0 0 0 0 0 0.25 0"/>
<feBlend mode="normal" in2="BackgroundImageFix" result="effect1_dropShadow_1568_1564"/>
<feBlend mode="normal" in="SourceGraphic" in2="effect1_dropShadow_1568_1564" result="shape"/>
</filter>
</defs>
</svg>
