<svg width="22" height="19" viewBox="0 0 22 19" fill="none" xmlns="http://www.w3.org/2000/svg">
<path d="M20.5 17.725V1.5H1.5V9.5H0V1.5C0 1.08333 0.146875 0.729167 0.440625 0.4375C0.734375 0.145833 1.0875 0 1.5 0H20.5C20.9125 0 21.2656 0.146875 21.5594 0.440625C21.8531 0.734375 22 1.0875 22 1.5V16C22 16.4333 21.8583 16.8125 21.575 17.1375C21.2917 17.4625 20.9333 17.6583 20.5 17.725ZM8 10.975C6.9 10.975 6 10.625 5.3 9.925C4.6 9.225 4.25 8.325 4.25 7.225C4.25 6.125 4.6 5.225 5.3 4.525C6 3.825 6.9 3.475 8 3.475C9.1 3.475 10 3.825 10.7 4.525C11.4 5.225 11.75 6.125 11.75 7.225C11.75 8.325 11.4 9.225 10.7 9.925C10 10.625 9.1 10.975 8 10.975ZM8 9.475C8.65 9.475 9.1875 9.2625 9.6125 8.8375C10.0375 8.4125 10.25 7.875 10.25 7.225C10.25 6.575 10.0375 6.0375 9.6125 5.6125C9.1875 5.1875 8.65 4.975 8 4.975C7.35 4.975 6.8125 5.1875 6.3875 5.6125C5.9625 6.0375 5.75 6.575 5.75 7.225C5.75 7.875 5.9625 8.4125 6.3875 8.8375C6.8125 9.2625 7.35 9.475 8 9.475ZM0 19V16.65C0 16.0167 0.158333 15.475 0.475 15.025C0.791667 14.575 1.2 14.2333 1.7 14C2.81667 13.5 3.8875 13.125 4.9125 12.875C5.9375 12.625 6.96667 12.5 8 12.5C9.03333 12.5 10.0583 12.6292 11.075 12.8875C12.0917 13.1458 13.1577 13.5183 14.273 14.0048C14.7947 14.2403 15.213 14.5817 15.5278 15.029C15.8426 15.4763 16 16.0167 16 16.65V19H0ZM1.5 17.5H14.5V16.65C14.5 16.3833 14.4208 16.1292 14.2625 15.8875C14.1042 15.6458 13.9083 15.4667 13.675 15.35C12.6083 14.8333 11.6333 14.4792 10.75 14.2875C9.86667 14.0958 8.95 14 8 14C7.05 14 6.125 14.0958 5.225 14.2875C4.325 14.4792 3.35 14.8333 2.3 15.35C2.06667 15.4667 1.875 15.6458 1.725 15.8875C1.575 16.1292 1.5 16.3833 1.5 16.65V17.5Z" fill="#F2F2F2"/>
</svg>
