<svg width="45" height="45" viewBox="0 0 45 45" fill="none" xmlns="http://www.w3.org/2000/svg">
<path d="M0 22.5001C0 10.0737 10.0735 0 22.5001 0C34.9265 0 45.0002 10.0735 45 22.5001C45 34.9265 34.9265 45.0002 22.5001 45C10.0737 45 0 34.9265 0 22.5001ZM22.5001 42.9254C33.7809 42.9254 42.9256 33.7807 42.9254 22.5001C42.9254 11.2193 33.7807 2.07458 22.5001 2.07458C11.2193 2.07458 2.07458 11.2193 2.07458 22.5001C2.07458 33.7809 11.2193 42.9256 22.5001 42.9254Z" fill="#A82700"/>
<path d="M32.5517 30.0751C32.8774 30.0751 33.1415 29.8105 33.1415 29.4841C33.1415 29.1575 32.8774 28.8926 32.5517 28.8926H30.0507C29.725 28.8926 29.4609 29.1575 29.4609 29.4841C29.4609 29.8105 29.725 30.0751 30.0507 30.0751H32.5517Z" fill="#A82700"/>
<path d="M32.9273 31.4197V34.0109H32.2691V30.6836H30.3008C30.2936 30.7202 30.2897 30.7585 30.2897 30.7971V31.4432C29.1147 31.5691 28.4062 32.1231 28.4062 32.9517V34.3664C28.4062 34.6924 28.67 34.9573 28.9957 34.9573H30.1352H30.3729H32.2035H33.5546H33.581C33.9067 34.9573 34.1708 34.6924 34.1708 34.3664V32.5878C34.1705 32.2156 33.9843 31.646 32.9273 31.4197Z" fill="#A82700"/>
<path d="M14.9453 28.9445H18.4586L18.0573 27.7617H14.5352L14.9453 28.9445Z" fill="#A82700"/>
<path d="M19.1041 25.4355H13.7305L14.1406 26.6184H19.5054L19.1041 25.4355Z" fill="#A82700"/>
<path d="M37.3139 10.644C37.3123 10.5341 37.2546 10.4331 37.1607 10.3765C37.0678 10.3189 36.9517 10.315 36.8545 10.3641C36.6733 10.455 32.9161 12.4056 26.1438 20.1768C25.8944 20.4544 25.6408 20.7399 25.3812 21.0352C22.1183 24.749 19.6539 27.9619 19.6297 27.9943C19.4315 28.2533 19.4801 28.6245 19.7383 28.8233C19.7748 28.8514 19.8139 28.8746 19.8544 28.8926C20.0982 29.0038 20.3946 28.9364 20.5648 28.7144C20.5804 28.6938 21.5872 27.3812 23.159 25.4734L26.7757 25.6022C27.1007 25.614 27.3743 25.3586 27.386 25.0326C27.3974 24.7062 27.1428 24.4322 26.8174 24.4207L24.1143 24.3239C24.291 24.1137 24.4726 23.8985 24.6584 23.6794L28.8016 23.8001C28.9503 23.6656 29.1003 23.5123 29.2502 23.3363C31.4542 20.7562 33.3585 18.336 34.6209 16.7313C37.3208 13.2987 37.3156 10.7506 37.3139 10.644Z" fill="#A82700"/>
<path d="M26.7454 31.664H23.8897C23.7547 31.2893 23.1353 29.5695 22.5187 27.855C22.1477 28.319 21.8559 28.6902 21.657 28.9443C22.0551 30.0515 22.4268 31.0839 22.6361 31.664H17.3864C17.0607 31.664 16.7969 31.9292 16.7969 32.2556C16.7969 32.2768 16.7979 32.2981 16.8005 32.3187C16.7982 32.3393 16.7969 32.3609 16.7969 32.3825C16.7969 32.5231 16.7653 33.7559 15.6741 33.7559C15.3318 33.7559 15.1743 33.4619 14.8114 32.4515C14.7469 32.2621 12.1054 24.4972 11.9019 23.8802L11.8961 23.8625C11.8458 23.7098 11.7692 23.4789 11.6453 23.2327C14.0668 23.2274 18.384 23.2186 18.7397 23.218C19.159 23.2186 19.6347 23.2163 20.0344 24.4106C20.066 24.5051 20.1981 24.8775 20.3885 25.4089C20.6509 25.0829 20.9424 24.7242 21.2583 24.3386C21.2039 24.1843 21.166 24.0773 21.1517 24.0342C20.5596 22.266 19.5564 22.0352 18.7463 22.0352C18.7433 22.0352 18.7401 22.0352 18.7371 22.0352C18.2406 22.0365 10.0217 22.0538 10.0217 22.0538V22.062C9.96336 22.0571 9.90369 22.0538 9.84142 22.0538C9.35727 22.0538 8.92854 22.2382 8.60153 22.5888C7.75027 23.5002 7.8396 25.284 7.85264 25.4845C7.87286 25.7955 8.13009 26.0371 8.4408 26.0371L11.3852 26.0358C12.2201 28.4966 13.6165 32.6012 13.6967 32.8377C13.697 32.8387 13.6977 32.84 13.698 32.8413C13.6987 32.8432 13.6993 32.8449 13.6996 32.8468C14.0514 33.8275 14.4498 34.9387 15.6731 34.9387C15.7181 34.9387 15.7615 34.9364 15.8048 34.9345C15.8263 34.9371 15.8482 34.9387 15.87 34.9387H25.0321C25.9707 34.9387 26.6952 34.4636 27.0704 33.6013C27.3267 33.0136 27.3339 32.4449 27.3339 32.3821C27.3339 32.3606 27.3326 32.339 27.3306 32.3184C27.3326 32.2978 27.3339 32.2765 27.3339 32.2553C27.3345 31.9292 27.0704 31.664 26.7454 31.664ZM9.03385 24.8547C9.06677 24.3376 9.18219 23.6974 9.46225 23.3978C9.56756 23.2847 9.68134 23.2366 9.84207 23.2366C10.3543 23.2366 10.5587 23.5724 10.7771 24.2343L10.783 24.2523C10.8107 24.3367 10.8824 24.5492 10.9855 24.8543L9.03385 24.8547ZM25.9909 33.1281C25.8019 33.5623 25.5065 33.7563 25.0331 33.7563H17.6443C17.7985 33.4561 17.8908 33.1366 17.9371 32.8472H26.0865C26.0633 32.9371 26.0327 33.0332 25.9909 33.1281Z" fill="#A82700"/>
</svg>
