<svg width="728" height="25" viewBox="0 0 728 25" fill="none" xmlns="http://www.w3.org/2000/svg">
<path d="M5.53125 7.63281L1.76562 18H0.226562L4.5625 6.625H5.55469L5.53125 7.63281ZM8.6875 18L4.91406 7.63281L4.89062 6.625H5.88281L10.2344 18H8.6875ZM8.49219 13.7891V15.0234H2.10156V13.7891H8.49219ZM12.9844 10.875V18H11.5391V9.54688H12.9453L12.9844 10.875ZM15.625 9.5L15.6172 10.8438C15.4974 10.8177 15.3828 10.8021 15.2734 10.7969C15.1693 10.7865 15.0495 10.7812 14.9141 10.7812C14.5807 10.7812 14.2865 10.8333 14.0312 10.9375C13.776 11.0417 13.5599 11.1875 13.3828 11.375C13.2057 11.5625 13.0651 11.7865 12.9609 12.0469C12.862 12.3021 12.7969 12.5833 12.7656 12.8906L12.3594 13.125C12.3594 12.6146 12.4089 12.1354 12.5078 11.6875C12.612 11.2396 12.7708 10.8438 12.9844 10.5C13.1979 10.151 13.4688 9.88021 13.7969 9.6875C14.1302 9.48958 14.526 9.39062 14.9844 9.39062C15.0885 9.39062 15.2083 9.40365 15.3438 9.42969C15.4792 9.45052 15.5729 9.47396 15.625 9.5ZM18.5312 9.54688V18H17.0781V9.54688H18.5312ZM16.9688 7.30469C16.9688 7.07031 17.0391 6.8724 17.1797 6.71094C17.3255 6.54948 17.5391 6.46875 17.8203 6.46875C18.0964 6.46875 18.3073 6.54948 18.4531 6.71094C18.6042 6.8724 18.6797 7.07031 18.6797 7.30469C18.6797 7.52865 18.6042 7.72135 18.4531 7.88281C18.3073 8.03906 18.0964 8.11719 17.8203 8.11719C17.5391 8.11719 17.3255 8.03906 17.1797 7.88281C17.0391 7.72135 16.9688 7.52865 16.9688 7.30469ZM25.8359 16.5547V12.2031C25.8359 11.8698 25.7682 11.5807 25.6328 11.3359C25.5026 11.0859 25.3047 10.8932 25.0391 10.7578C24.7734 10.6224 24.4453 10.5547 24.0547 10.5547C23.6901 10.5547 23.3698 10.6172 23.0938 10.7422C22.8229 10.8672 22.6094 11.0312 22.4531 11.2344C22.3021 11.4375 22.2266 11.6562 22.2266 11.8906H20.7812C20.7812 11.5885 20.8594 11.2891 21.0156 10.9922C21.1719 10.6953 21.3958 10.4271 21.6875 10.1875C21.9844 9.94271 22.3385 9.75 22.75 9.60938C23.1667 9.46354 23.6302 9.39062 24.1406 9.39062C24.7552 9.39062 25.2969 9.49479 25.7656 9.70312C26.2396 9.91146 26.6094 10.2266 26.875 10.6484C27.1458 11.0651 27.2812 11.5885 27.2812 12.2188V16.1562C27.2812 16.4375 27.3047 16.737 27.3516 17.0547C27.4036 17.3724 27.4792 17.6458 27.5781 17.875V18H26.0703C25.9974 17.8333 25.9401 17.612 25.8984 17.3359C25.8568 17.0547 25.8359 16.7943 25.8359 16.5547ZM26.0859 12.875L26.1016 13.8906H24.6406C24.2292 13.8906 23.862 13.9245 23.5391 13.9922C23.2161 14.0547 22.9453 14.151 22.7266 14.2812C22.5078 14.4115 22.3411 14.5755 22.2266 14.7734C22.112 14.9661 22.0547 15.1927 22.0547 15.4531C22.0547 15.7188 22.1146 15.9609 22.2344 16.1797C22.3542 16.3984 22.5339 16.5729 22.7734 16.7031C23.0182 16.8281 23.3177 16.8906 23.6719 16.8906C24.1146 16.8906 24.5052 16.7969 24.8438 16.6094C25.1823 16.4219 25.4505 16.1927 25.6484 15.9219C25.8516 15.651 25.9609 15.388 25.9766 15.1328L26.5938 15.8281C26.5573 16.0469 26.4583 16.2891 26.2969 16.5547C26.1354 16.8203 25.9193 17.0755 25.6484 17.3203C25.3828 17.5599 25.0651 17.7604 24.6953 17.9219C24.3307 18.0781 23.9193 18.1562 23.4609 18.1562C22.888 18.1562 22.3854 18.0443 21.9531 17.8203C21.526 17.5964 21.1927 17.2969 20.9531 16.9219C20.7188 16.5417 20.6016 16.1172 20.6016 15.6484C20.6016 15.1953 20.6901 14.7969 20.8672 14.4531C21.0443 14.1042 21.2995 13.8151 21.6328 13.5859C21.9661 13.3516 22.3672 13.1745 22.8359 13.0547C23.3047 12.9349 23.8281 12.875 24.4062 12.875H26.0859ZM31.125 6V18H29.6719V6H31.125Z" fill="#23313E"/>
<path d="M58 14.9984L53 10.0234H63L58 14.9984Z" fill="#23313E"/>
<path d="M99 19L104.5 5H106.5L112 19H110.125L108.7 15.25H102.3L100.875 19H99ZM102.9 13.65H108.1L105.55 6.875H105.45L102.9 13.65ZM113.25 12.75V11.25H121V12.75H113.25Z" fill="#23313E"/>
<rect x="142.5" y="0.5" width="23" height="23" stroke="#A82700"/>
<path d="M154.695 6.5625V18H153.25V8.36719L150.336 9.42969V8.125L154.469 6.5625H154.695Z" fill="#23313E"/>
<path d="M187 19L192.5 5H194.5L200 19H198.125L196.7 15.25H190.3L188.875 19H187ZM190.9 13.65H196.1L193.55 6.875H193.45L190.9 13.65ZM204.25 16V12.75H201V11.25H204.25V8H205.75V11.25H209V12.75H205.75V16H204.25Z" fill="#23313E"/>
<path d="M236.875 19V5H242.575C243.675 5 244.629 5.35 245.438 6.05C246.246 6.75 246.65 7.63333 246.65 8.7C246.65 9.33333 246.475 9.91667 246.125 10.45C245.775 10.9833 245.308 11.3917 244.725 11.675V11.825C245.442 12.0583 246.021 12.475 246.463 13.075C246.904 13.675 247.125 14.35 247.125 15.1C247.125 16.2333 246.688 17.1667 245.812 17.9C244.938 18.6333 243.917 19 242.75 19H236.875ZM239.025 17.1H242.625C243.258 17.1 243.808 16.8917 244.275 16.475C244.742 16.0583 244.975 15.5333 244.975 14.9C244.975 14.2833 244.742 13.7667 244.275 13.35C243.808 12.9333 243.258 12.725 242.625 12.725H239.025V17.1ZM239.025 10.925H242.425C243.008 10.925 243.513 10.7333 243.938 10.35C244.363 9.96667 244.575 9.48333 244.575 8.9C244.575 8.31667 244.363 7.82917 243.938 7.4375C243.513 7.04583 243.008 6.85 242.425 6.85H239.025V10.925Z" fill="#23313E"/>
<path d="M279.602 19.0258V17.0258H282.952L286.427 6.80078H282.452V4.80078H291.952V6.80078H288.602L285.127 17.0258H289.102V19.0258H279.602Z" fill="#23313E"/>
<path d="M323 20.5V19H337V20.5H323ZM330 17C328.333 17 327.029 16.5125 326.088 15.5375C325.146 14.5625 324.675 13.2417 324.675 11.575V3H326.75V11.575C326.75 12.625 327.033 13.4667 327.6 14.1C328.167 14.7333 328.967 15.05 330 15.05C331.033 15.05 331.833 14.7333 332.4 14.1C332.967 13.4667 333.25 12.625 333.25 11.575V3H335.325V11.575C335.325 13.2417 334.854 14.5625 333.913 15.5375C332.971 16.5125 331.667 17 330 17Z" fill="#23313E"/>
<path d="M371.225 18V16.475H383V18H371.225ZM371.225 12.75V11.25H383V12.75H371.225ZM365 7.5V6H383V7.5H365Z" fill="#23313E"/>
<path d="M408.25 24V20.5H427.75V24H408.25ZM411.5 17L417 3H419L424.5 17H422.625L421.2 13.25H414.8L413.375 17H411.5ZM415.4 11.65H420.6L418.05 4.875H417.95L415.4 11.65Z" fill="#23313E"/>
<path d="M456 20.0234L452 16.0234L453.05 14.9734L455.25 17.1234V6.92344L453.05 9.07344L452 8.02344L456 4.02344L460 8.02344L458.95 9.07344L456.75 6.92344V17.1234L458.95 14.9734L460 16.0234L456 20.0234ZM462 18.9984V17.4984H472V18.9984H462ZM462 12.7484V11.2484H472V12.7484H462ZM462 6.49844V4.99844H472V6.49844H462Z" fill="#23313E"/>
<path d="M497 22V20.5H499.5V19.75H498V18.25H499.5V17.5H497V16H500C500.283 16 500.521 16.0958 500.713 16.2875C500.904 16.4792 501 16.7167 501 17V18C501 18.2833 500.904 18.5208 500.713 18.7125C500.521 18.9042 500.283 19 500 19C500.283 19 500.521 19.0958 500.713 19.2875C500.904 19.4792 501 19.7167 501 20V21C501 21.2833 500.904 21.5208 500.713 21.7125C500.521 21.9042 500.283 22 500 22H497ZM497 15V12.25C497 11.9667 497.096 11.7292 497.287 11.5375C497.479 11.3458 497.717 11.25 498 11.25H499.5V10.5H497V9H500C500.283 9 500.521 9.09583 500.713 9.2875C500.904 9.47917 501 9.71667 501 10V11.75C501 12.0333 500.904 12.2708 500.713 12.4625C500.521 12.6542 500.283 12.75 500 12.75H498.5V13.5H501V15H497ZM498.5 8V3.5H497V2H500V8H498.5ZM503.225 18.775V17.275H515V18.775H503.225ZM503.225 12.7V11.2H515V12.7H503.225ZM503.225 6.625V5.125H515V6.625H503.225Z" fill="#23313E"/>
<path d="M547.423 19.05V17.55H558.998V19.05H547.423ZM547.423 12.75V11.25H558.998V12.75H547.423ZM547.423 6.425V4.925H558.998V6.425H547.423ZM542.723 19.975C542.256 19.975 541.856 19.8167 541.523 19.5C541.19 19.1833 541.023 18.7875 541.023 18.3125C541.023 17.8375 541.186 17.4375 541.511 17.1125C541.836 16.7875 542.236 16.625 542.711 16.625C543.186 16.625 543.582 16.7915 543.898 17.1244C544.215 17.4573 544.373 17.8575 544.373 18.325C544.373 18.7788 544.212 19.1672 543.889 19.4903C543.566 19.8134 543.177 19.975 542.723 19.975ZM542.723 13.675C542.256 13.675 541.856 13.511 541.523 13.183C541.19 12.855 541.023 12.4606 541.023 12C541.023 11.5394 541.19 11.145 541.523 10.817C541.856 10.489 542.256 10.325 542.723 10.325C543.177 10.325 543.566 10.489 543.889 10.817C544.212 11.145 544.373 11.5394 544.373 12C544.373 12.4606 544.212 12.855 543.889 13.183C543.566 13.511 543.177 13.675 542.723 13.675ZM542.698 7.35C542.238 7.35 541.843 7.18599 541.515 6.85797C541.187 6.52996 541.023 6.13563 541.023 5.675C541.023 5.21437 541.187 4.82004 541.515 4.49203C541.843 4.16401 542.238 4 542.698 4C543.159 4 543.553 4.16401 543.881 4.49203C544.209 4.82004 544.373 5.21437 544.373 5.675C544.373 6.13563 544.209 6.52996 543.881 6.85797C543.553 7.18599 543.159 7.35 542.698 7.35Z" fill="#23313E"/>
<path d="M587.55 18.6508L584 15.1008L585.05 14.0508L587.55 16.5258L592.025 12.0508L593.075 13.1258L587.55 18.6508ZM587.55 10.6508L584 7.10078L585.05 6.05078L587.55 8.52578L592.025 4.05078L593.075 5.12578L587.55 10.6508ZM595 16.7508V15.2508H604V16.7508H595ZM595 8.75078V7.25078H604V8.75078H595Z" fill="#23313E"/>
<path d="M647 3V4.5L629 4.5V3L647 3ZM647 8.575V15.475L643.475 12.075L647 8.575ZM647 19.5V21L629 21V19.5L647 19.5ZM638.675 7.125V8.625H629V7.125H638.675ZM638.675 11.25V12.75H629V11.25H638.675ZM638.675 15.375V16.875H629V15.375L638.675 15.375Z" fill="#23313E"/>
<path d="M673 21V19.5H691V21H673ZM673 15.425V8.525L676.525 11.925L673 15.425ZM673 4.5V3H691V4.5H673ZM681.325 16.875V15.375H691V16.875H681.325ZM681.325 12.75V11.25H691V12.75H681.325ZM681.325 8.625V7.125H691V8.625H681.325Z" fill="#23313E"/>
</svg>
