<svg width="79" height="76" viewBox="0 0 79 76" fill="none" xmlns="http://www.w3.org/2000/svg">
<path d="M43.7276 36.0826C44.225 36.0826 44.6283 35.5992 44.6283 35.0028C44.6283 34.4059 44.225 33.9219 43.7276 33.9219H39.9085C39.4111 33.9219 39.0078 34.4059 39.0078 35.0028C39.0078 35.5992 39.4111 36.0826 39.9085 36.0826H43.7276Z" fill="#A82700"/>
<path d="M44.3063 38.5365V43.2713H43.3011V37.1914H40.2955C40.2845 37.2583 40.2785 37.3282 40.2785 37.3988V38.5795C38.4842 38.8095 37.4023 39.8218 37.4023 41.3359V43.9209C37.4023 44.5166 37.8051 45.0006 38.3025 45.0006H40.0425H40.4055H43.201H45.2642H45.3045C45.8019 45.0006 46.2052 44.5166 46.2052 43.9209V40.6709C46.2047 39.9909 45.9204 38.95 44.3063 38.5365Z" fill="#A82700"/>
<path d="M16.8451 34.0129H22.2101L21.5972 31.8516H16.2188L16.8451 34.0129Z" fill="#A82700"/>
<path d="M23.1942 27.6035H14.9883L15.6146 29.7648H23.8071L23.1942 27.6035Z" fill="#A82700"/>
<path d="M50.9998 0.573618C50.9973 0.372845 50.9092 0.188206 50.7658 0.084832C50.6239 -0.0203348 50.4466 -0.0275053 50.2983 0.0621255C50.0215 0.228241 44.284 3.79256 33.9422 17.9925C33.5614 18.4998 33.174 19.0214 32.7777 19.561C27.795 26.3472 24.0316 32.218 23.9948 32.2772C23.6921 32.7505 23.7663 33.4287 24.1606 33.792C24.2163 33.8434 24.2761 33.8858 24.3378 33.9186C24.7102 34.1218 25.1628 33.9987 25.4227 33.593C25.4466 33.5553 26.984 31.1568 29.3842 27.6708L34.9071 27.9062C35.4035 27.9277 35.8212 27.461 35.8391 26.8653C35.8565 26.269 35.4677 25.7682 34.9708 25.7473L30.843 25.5704C31.1128 25.1862 31.3902 24.793 31.6739 24.3927L38.0009 24.6132C38.2279 24.3676 38.4569 24.0873 38.6859 23.7659C42.0515 19.0513 44.9596 14.6289 46.8874 11.6968C51.0102 5.42443 51.0023 0.768416 50.9998 0.573618Z" fill="#A82700"/>
<path d="M34.8641 38.9851H30.5033C30.2972 38.3003 29.3512 35.1579 28.4097 32.025C27.8432 32.8729 27.3976 33.5511 27.0939 34.0154C27.7018 36.0386 28.2693 37.9251 28.589 38.9851H20.5723C20.0749 38.9851 19.6721 39.4697 19.6721 40.066C19.6721 40.1049 19.6736 40.1437 19.6776 40.1814C19.6741 40.219 19.6721 40.2585 19.6721 40.2979C19.6721 40.5548 19.6238 42.8076 17.9575 42.8076C17.4347 42.8076 17.1942 42.2704 16.6401 40.424C16.5415 40.078 12.5078 25.8895 12.1971 24.7619L12.1882 24.7297C12.1115 24.4506 11.9945 24.0288 11.8053 23.5788C15.503 23.5692 22.0958 23.5531 22.6389 23.5519C23.2792 23.5531 24.0056 23.5489 24.616 25.7311C24.6643 25.9038 24.8659 26.5844 25.1567 27.5554C25.5574 26.9597 26.0025 26.3042 26.485 25.5997C26.4018 25.3176 26.3441 25.1222 26.3222 25.0434C25.418 21.8125 23.8861 21.3906 22.6489 21.3906C22.6444 21.3906 22.6394 21.3906 22.6349 21.3906C21.8767 21.393 9.3259 21.4247 9.3259 21.4247V21.4396C9.23679 21.4307 9.14568 21.4247 9.05058 21.4247C8.31125 21.4247 7.65655 21.7617 7.15718 22.4023C5.85725 24.0676 5.99366 27.3272 6.01358 27.6934C6.04445 28.2617 6.43727 28.7033 6.91174 28.7033L11.408 28.7009C12.683 33.1974 14.8154 40.6976 14.9379 41.1297C14.9384 41.1315 14.9394 41.1339 14.9399 41.1362C14.9409 41.1398 14.9419 41.1428 14.9424 41.1464C15.4796 42.9384 16.088 44.9688 17.956 44.9688C18.0247 44.9688 18.0909 44.9647 18.1571 44.9611C18.19 44.9659 18.2233 44.9688 18.2567 44.9688H32.2478C33.6812 44.9688 34.7874 44.1006 35.3605 42.5249C35.7518 41.4511 35.7628 40.412 35.7628 40.2973C35.7628 40.2579 35.7608 40.2184 35.7578 40.1808C35.7608 40.1431 35.7628 40.1043 35.7628 40.0655C35.7638 39.4697 35.3605 38.9851 34.8641 38.9851ZM7.81736 26.5426C7.86764 25.5979 8.04389 24.4279 8.47156 23.8806C8.63237 23.6738 8.80613 23.586 9.05158 23.586C9.83373 23.586 10.1459 24.1996 10.4795 25.4091L10.4884 25.4419C10.5307 25.5961 10.6403 25.9845 10.7976 26.542L7.81736 26.5426ZM33.712 41.6603C33.4233 42.4538 32.9722 42.8082 32.2493 42.8082H20.9661C21.2016 42.2596 21.3425 41.6758 21.4132 41.147H33.8579C33.8226 41.3113 33.7758 41.487 33.712 41.6603Z" fill="#A82700"/>
<path d="M8.27344 66.3086H3.71484V64.4688H8.27344C9.15625 64.4688 9.87109 64.3281 10.418 64.0469C10.9648 63.7656 11.3633 63.375 11.6133 62.875C11.8711 62.375 12 61.8047 12 61.1641C12 60.5781 11.8711 60.0273 11.6133 59.5117C11.3633 58.9961 10.9648 58.582 10.418 58.2695C9.87109 57.9492 9.15625 57.7891 8.27344 57.7891H4.24219V73H1.98047V55.9375H8.27344C9.5625 55.9375 10.6523 56.1602 11.543 56.6055C12.4336 57.0508 13.1094 57.668 13.5703 58.457C14.0312 59.2383 14.2617 60.1328 14.2617 61.1406C14.2617 62.2344 14.0312 63.168 13.5703 63.9414C13.1094 64.7148 12.4336 65.3047 11.543 65.7109C10.6523 66.1094 9.5625 66.3086 8.27344 66.3086ZM21.8906 73.2344C21.0078 73.2344 20.207 73.0859 19.4883 72.7891C18.7773 72.4844 18.1641 72.0586 17.6484 71.5117C17.1406 70.9648 16.75 70.3164 16.4766 69.5664C16.2031 68.8164 16.0664 67.9961 16.0664 67.1055V66.6133C16.0664 65.582 16.2188 64.6641 16.5234 63.8594C16.8281 63.0469 17.2422 62.3594 17.7656 61.7969C18.2891 61.2344 18.8828 60.8086 19.5469 60.5195C20.2109 60.2305 20.8984 60.0859 21.6094 60.0859C22.5156 60.0859 23.2969 60.2422 23.9531 60.5547C24.6172 60.8672 25.1602 61.3047 25.582 61.8672C26.0039 62.4219 26.3164 63.0781 26.5195 63.8359C26.7227 64.5859 26.8242 65.4062 26.8242 66.2969V67.2695H17.3555V65.5H24.6562V65.3359C24.625 64.7734 24.5078 64.2266 24.3047 63.6953C24.1094 63.1641 23.7969 62.7266 23.3672 62.3828C22.9375 62.0391 22.3516 61.8672 21.6094 61.8672C21.1172 61.8672 20.6641 61.9727 20.25 62.1836C19.8359 62.3867 19.4805 62.6914 19.1836 63.0977C18.8867 63.5039 18.6562 64 18.4922 64.5859C18.3281 65.1719 18.2461 65.8477 18.2461 66.6133V67.1055C18.2461 67.707 18.3281 68.2734 18.4922 68.8047C18.6641 69.3281 18.9102 69.7891 19.2305 70.1875C19.5586 70.5859 19.9531 70.8984 20.4141 71.125C20.8828 71.3516 21.4141 71.4648 22.0078 71.4648C22.7734 71.4648 23.4219 71.3086 23.9531 70.9961C24.4844 70.6836 24.9492 70.2656 25.3477 69.7422L26.6602 70.7852C26.3867 71.1992 26.0391 71.5938 25.6172 71.9688C25.1953 72.3438 24.6758 72.6484 24.0586 72.8828C23.4492 73.1172 22.7266 73.2344 21.8906 73.2344ZM31.5234 63.0273V73H29.3555V60.3203H31.4062L31.5234 63.0273ZM31.0078 66.1797L30.1055 66.1445C30.1133 65.2773 30.2422 64.4766 30.4922 63.7422C30.7422 63 31.0938 62.3555 31.5469 61.8086C32 61.2617 32.5391 60.8398 33.1641 60.543C33.7969 60.2383 34.4961 60.0859 35.2617 60.0859C35.8867 60.0859 36.4492 60.1719 36.9492 60.3438C37.4492 60.5078 37.875 60.7734 38.2266 61.1406C38.5859 61.5078 38.8594 61.9844 39.0469 62.5703C39.2344 63.1484 39.3281 63.8555 39.3281 64.6914V73H37.1484V64.668C37.1484 64.0039 37.0508 63.4727 36.8555 63.0742C36.6602 62.668 36.375 62.375 36 62.1953C35.625 62.0078 35.1641 61.9141 34.6172 61.9141C34.0781 61.9141 33.5859 62.0273 33.1406 62.2539C32.7031 62.4805 32.3242 62.793 32.0039 63.1914C31.6914 63.5898 31.4453 64.0469 31.2656 64.5625C31.0938 65.0703 31.0078 65.6094 31.0078 66.1797ZM50.9297 60.3203V73H48.75V60.3203H50.9297ZM48.5859 56.957C48.5859 56.6055 48.6914 56.3086 48.9023 56.0664C49.1211 55.8242 49.4414 55.7031 49.8633 55.7031C50.2773 55.7031 50.5938 55.8242 50.8125 56.0664C51.0391 56.3086 51.1523 56.6055 51.1523 56.957C51.1523 57.293 51.0391 57.582 50.8125 57.8242C50.5938 58.0586 50.2773 58.1758 49.8633 58.1758C49.4414 58.1758 49.1211 58.0586 48.9023 57.8242C48.6914 57.582 48.5859 57.293 48.5859 56.957ZM59.7188 60.3203V61.9844H52.8633V60.3203H59.7188ZM55.1836 57.2383H57.3516V69.8594C57.3516 70.2891 57.418 70.6133 57.5508 70.832C57.6836 71.0508 57.8555 71.1953 58.0664 71.2656C58.2773 71.3359 58.5039 71.3711 58.7461 71.3711C58.9258 71.3711 59.1133 71.3555 59.3086 71.3242C59.5117 71.2852 59.6641 71.2539 59.7656 71.2305L59.7773 73C59.6055 73.0547 59.3789 73.1055 59.0977 73.1523C58.8242 73.207 58.4922 73.2344 58.1016 73.2344C57.5703 73.2344 57.082 73.1289 56.6367 72.918C56.1914 72.707 55.8359 72.3555 55.5703 71.8633C55.3125 71.3633 55.1836 70.6914 55.1836 69.8477V57.2383Z" fill="#23313E"/>
</svg>
